<?xml version="1.0" standalone="no"?>
  <!DOCTYPE svg PUBLIC "-//W3C//DTD SVG 1.1//EN" "http://www.w3.org/Graphics/SVG/1.1/DTD/svg11.dtd" >
  <svg>
  <metadata>
  Created by font-carrier
  </metadata>
  <defs>
  <font id="RobotoCondensed-Light" horiz-adv-x="3708" vert-adv-y="3708" >
    <font-face
      
      font-family="Roboto Condensed Light"
      
      font-weight="400"
      
      font-stretch="normal"
      
      units-per-em="2048"
      
      ascent="1900"
      
      descent="-500"
      
    />
      <missing-glyph />

      

      
      <glyph glyph-name="uni21" unicode="&#x21;" d="M269 406L166 406L160 1456L276 1456L269 406M149 71Q149 106 168.50 129.50Q188 153 223 153Q258 153 277.50 129.50Q297 106 297 71Q297 37 277.50 14.50Q258-8 223-8Q188-8 168.50 14.50Q149 37 149 71Z"  horiz-adv-x="438" vert-adv-y="2048"  />

      
      <glyph glyph-name="uni22" unicode="&#x22;" d="M243 1396L223 1081L143 1081L146 1536L243 1536L243 1396M479 1396L459 1081L378 1081L382 1536L479 1536L479 1396Z"  horiz-adv-x="588" vert-adv-y="2048"  />

      
      <glyph glyph-name="uni23" unicode="&#x23;" d="M654 410L398 410L333 0L243 0L308 410L97 410L97 505L323 505L393 942L161 942L161 1040L408 1040L475 1456L565 1456L498 1040L755 1040L822 1456L913 1456L846 1040L1034 1040L1034 942L830 942L760 505L971 505L971 410L745 410L680 0L589 0L654 410M413 505L669 505L739 942L483 942L413 505Z"  horiz-adv-x="1052" vert-adv-y="2048"  />

      
      <glyph glyph-name="uni24" unicode="&#x24;" d="M769 359Q769 471 710 540Q651 609 503 672Q309 747 234.50 844.50Q160 942 160 1094Q160 1257 244 1359Q328 1461 470 1475L470 1678L564 1678L564 1474Q710 1457 790.50 1343Q871 1229 871 1027L761 1027Q761 1181 695.50 1274.50Q630 1368 514 1368Q400 1368 335 1293.50Q270 1219 270 1096Q270 980 329.50 912Q389 844 536.50 783.50Q684 723 750 668Q816 613 848.50 539Q881 465 881 361Q881 199 794.50 97.50Q708-4 558-18L558-208L466-208L466-19Q298-4 207 110Q116 224 116 419L227 419Q227 264 300.50 175.50Q374 87 506 87Q625 87 697 163Q769 239 769 359Z"  horiz-adv-x="996" vert-adv-y="2048"  />

      
      <glyph glyph-name="uni25" unicode="&#x25;" d="M111 1176Q111 1305 178.50 1391Q246 1477 352 1477Q457 1477 525.50 1391.50Q594 1306 594 1171L594 1099Q594 971 526.50 885.50Q459 800 354 800Q249 800 180 884.50Q111 969 111 1105L111 1176M199 1099Q199 1008 241 948Q283 888 354 888Q424 888 465 948.50Q506 1009 506 1104L506 1176Q506 1266 464.50 1327Q423 1388 352 1388Q282 1388 240.50 1327Q199 1266 199 1172L199 1099M723 357Q723 486 790.50 571.50Q858 657 963 657Q1068 657 1137 572.50Q1206 488 1206 350L1206 279Q1206 148 1137 63.50Q1068-21 965-21Q861-21 792 63.50Q723 148 723 285L723 357M810 279Q810 188 852 127.50Q894 67 965 67Q1035 67 1076.50 127Q1118 187 1118 284L1118 357Q1118 452 1076.50 510Q1035 568 963 568Q893 568 851.50 510Q810 452 810 352L810 279M386 120L319 169L916 1307L984 1258L386 120Z"  horiz-adv-x="1309" vert-adv-y="2048"  />

      
      <glyph glyph-name="uni26" unicode="&#x26;" d="M359 792Q279 906 248 987Q217 1068 217 1144Q217 1299 295 1387.50Q373 1476 503 1476Q620 1476 695 1395.50Q770 1315 770 1190Q770 1045 638 914L497 785L825 327Q896 471 896 652L998 652Q998 403 891 236L1060 0L926 0L824 142Q758 66 672 23Q586-20 492-20Q318-20 214 87Q110 194 110 372Q110 477 162.50 571.50Q215 666 359 792M492 83Q644 83 762 228L425 700L415 712L379 679Q220 523 220 372Q220 241 294 162Q368 83 492 83M328 1148Q328 1030 440 865L545 961Q598 1007 631.50 1061.50Q665 1116 665 1190Q665 1268 620.50 1320Q576 1372 502 1372Q424 1372 376 1310.50Q328 1249 328 1148Z"  horiz-adv-x="1100" vert-adv-y="2048"  />

      
      <glyph glyph-name="uni27" unicode="&#x27;" d="M226 1397L209 1089L119 1089Q124 1387 124 1536L226 1536L226 1397Z"  horiz-adv-x="348" vert-adv-y="2048"  />

      
      <glyph glyph-name="uni28" unicode="&#x28;" d="M136 588Q136 813 188.50 1024Q241 1235 331.50 1398Q422 1561 522 1633L548 1549Q465 1477 396 1330.50Q327 1184 287.50 991.50Q248 799 248 571Q248 364 287 172.50Q326-19 396-168.50Q466-318 548-391L522-470Q454-421 384-322Q314-223 258.50-86Q203 51 169.50 215.50Q136 380 136 588Z"  horiz-adv-x="596" vert-adv-y="2048"  />

      
      <glyph glyph-name="uni29" unicode="&#x29;" d="M460 573Q460 348 410.50 141.50Q361-65 269.50-230Q178-395 74-470L49-391Q147-305 224-118Q349 187 349 591Q349 796 309.50 986.50Q270 1177 199.50 1330Q129 1483 49 1554L74 1633Q183 1554 280 1369Q460 1024 460 573Z"  horiz-adv-x="607" vert-adv-y="2048"  />

      
      <glyph glyph-name="uni2a" unicode="&#x2a;" d="M361 1000L29 1106L61 1210L393 1087L389 1456L493 1456L485 1084L809 1211L842 1107L509 993L732 700L647 636L433 940L229 638L144 700L361 1000Z"  horiz-adv-x="869" vert-adv-y="2048"  />

      
      <glyph glyph-name="uni2b" unicode="&#x2b;" d="M556 742L922 742L922 627L556 627L556 146L443 146L443 627L83 627L83 742L443 742L443 1206L556 1206L556 742Z"  horiz-adv-x="1012" vert-adv-y="2048"  />

      
      <glyph glyph-name="uni2c" unicode="&#x2c;" d="M131-273L60-220Q151-98 154 34L154 190L271 190L271 67Q271-146 131-273Z"  horiz-adv-x="392" vert-adv-y="2048"  />

      
      <glyph glyph-name="uni2d" unicode="&#x2d;" d="M463 590L59 590L59 693L463 693L463 590Z"  horiz-adv-x="529" vert-adv-y="2048"  />

      
      <glyph glyph-name="uni2e" unicode="&#x2e;" d="M145 73Q145 109 167.50 133.50Q190 158 230 158Q270 158 293 133.50Q316 109 316 73Q316 38 293 15Q270-8 230-8Q190-8 167.50 15Q145 38 145 73Z"  horiz-adv-x="489" vert-adv-y="2048"  />

      
      <glyph glyph-name="uni2f" unicode="&#x2f;" d="M143-125L43-125L554 1456L653 1456L143-125Z"  horiz-adv-x="728" vert-adv-y="2048"  />

      
      <glyph glyph-name="uni30" unicode="&#x30;" d="M876 608Q876 298 780.50 139Q685-20 499-20Q315-20 218.50 138.50Q122 297 120 596L120 852Q120 1156 215 1316Q310 1476 497 1476Q681 1476 777 1321.50Q873 1167 876 871L876 608M764 868Q764 1118 697.50 1245Q631 1372 497 1372Q368 1372 300.50 1250.50Q233 1129 230 889L230 594Q230 350 298.50 216.50Q367 83 499 83Q627 83 694.50 209.50Q762 336 764 581L764 868Z"  horiz-adv-x="996" vert-adv-y="2048"  />

      
      <glyph glyph-name="uni31" unicode="&#x31;" d="M609 0L497 0L497 1309L168 1162L168 1276L590 1461L609 1461L609 0Z"  horiz-adv-x="996" vert-adv-y="2048"  />

      
      <glyph glyph-name="uni32" unicode="&#x32;" d="M905 0L133 0L133 94L547 653Q651 796 692 890Q733 984 733 1074Q733 1211 667.50 1291.50Q602 1372 486 1372Q363 1372 290 1278.50Q217 1185 217 1036L106 1036Q106 1226 211 1351Q316 1476 486 1476Q652 1476 749 1372.50Q846 1269 846 1085Q846 910 688 676L624 584L268 103L905 103L905 0Z"  horiz-adv-x="996" vert-adv-y="2048"  />

      
      <glyph glyph-name="uni33" unicode="&#x33;" d="M356 794L465 794Q587 795 662.50 871.50Q738 948 738 1076Q738 1217 673 1294.50Q608 1372 489 1372Q373 1372 301.50 1289.50Q230 1207 230 1074L119 1074Q119 1188 165.50 1279.50Q212 1371 298 1423.50Q384 1476 489 1476Q653 1476 751 1369.50Q849 1263 849 1072Q849 964 792.50 876Q736 788 641 746Q751 710 811 619.50Q871 529 871 396Q871 206 767 93Q663-20 492-20Q383-20 292 31.50Q201 83 151.50 176Q102 269 102 394L213 394Q213 258 290.50 170.50Q368 83 492 83Q619 83 689.50 162.50Q760 242 760 392Q760 536 684.50 612.50Q609 689 464 690L356 690L356 794Z"  horiz-adv-x="996" vert-adv-y="2048"  />

      
      <glyph glyph-name="uni34" unicode="&#x34;" d="M757 470L944 470L944 366L757 366L757 0L646 0L646 366L74 366L74 437L637 1456L757 1456L757 470M207 470L646 470L646 1288L606 1207L207 470Z"  horiz-adv-x="996" vert-adv-y="2048"  />

      
      <glyph glyph-name="uni35" unicode="&#x35;" d="M201 746L261 1456L876 1456L876 1342L356 1342L315 854Q413 934 540 934Q707 934 804.50 805.50Q902 677 902 464Q902 236 806 108Q710-20 533-20Q372-20 272 87.50Q172 195 159 383L265 383Q279 236 348 159.50Q417 83 533 83Q660 83 725.50 182Q791 281 791 462Q791 623 717.50 722.50Q644 822 519 822Q447 822 395 799.50Q343 777 289 718L201 746Z"  horiz-adv-x="996" vert-adv-y="2048"  />

      
      <glyph glyph-name="uni36" unicode="&#x36;" d="M729 1466L729 1359L712 1359Q500 1358 378.50 1209Q257 1060 243 788Q294 869 370 912.50Q446 956 538 956Q699 956 794.50 823.50Q890 691 890 477Q890 254 789 117Q688-20 525-20Q350-20 240 130Q130 280 130 524L130 642Q130 1043 278 1252.50Q426 1462 703 1466L729 1466M520 851Q426 851 346.50 783.50Q267 716 241 617L241 513Q241 323 321 203.50Q401 84 525 84Q639 84 710 193Q781 302 781 472Q781 643 710.50 747Q640 851 520 851Z"  horiz-adv-x="996" vert-adv-y="2048"  />

      
      <glyph glyph-name="uni37" unicode="&#x37;" d="M893 1386L373 0L257 0L774 1352L85 1352L85 1456L893 1456L893 1386Z"  horiz-adv-x="996" vert-adv-y="2048"  />

      
      <glyph glyph-name="uni38" unicode="&#x38;" d="M857 1081Q857 971 803.50 881.50Q750 792 658 747Q766 701 827.50 605Q889 509 889 386Q889 202 782.50 91Q676-20 500-20Q322-20 216 90.50Q110 201 110 386Q110 511 170.50 606Q231 701 337 747Q245 792 192.50 880.50Q140 969 140 1081Q140 1262 238 1369Q336 1476 498 1476Q661 1476 759 1368Q857 1260 857 1081M777 386Q777 522 698 608.50Q619 695 498 695Q377 695 298.50 610Q220 525 220 386Q220 247 295.50 165Q371 83 500 83Q626 83 701.50 165Q777 247 777 386M746 1082Q746 1207 675.50 1289.50Q605 1372 498 1372Q387 1372 319.50 1292Q252 1212 252 1082Q252 951 321.50 875Q391 799 499 799Q607 799 676.50 876.50Q746 954 746 1082Z"  horiz-adv-x="996" vert-adv-y="2048"  />

      
      <glyph glyph-name="uni39" unicode="&#x39;" d="M754 664Q702 576 623 526.50Q544 477 455 477Q299 477 202 614Q105 751 105 965Q105 1187 206.50 1331.50Q308 1476 476 1476Q660 1476 762.50 1323Q865 1170 865 888L865 780Q865 382 726 187.50Q587-7 303-10L273-10L274 96L306 96Q522 99 634.50 238.50Q747 378 754 664M470 582Q564 582 641.50 650.50Q719 719 755 834L755 907Q755 1122 679.50 1246.50Q604 1371 477 1371Q362 1371 288 1257Q214 1143 214 970Q214 803 285 692.50Q356 582 470 582Z"  horiz-adv-x="996" vert-adv-y="2048"  />

      
      <glyph glyph-name="uni3a" unicode="&#x3a;" d="M131 73Q131 109 153.50 133.50Q176 158 216 158Q256 158 279 133.50Q302 109 302 73Q302 38 279 15Q256-8 216-8Q176-8 153.50 15Q131 38 131 73M133 995Q133 1031 155.50 1055.50Q178 1080 218 1080Q258 1080 281 1055.50Q304 1031 304 995Q304 960 281 937Q258 914 218 914Q178 914 155.50 937Q133 960 133 995Z"  horiz-adv-x="412" vert-adv-y="2048"  />

      
      <glyph glyph-name="uni3b" unicode="&#x3b;" d="M122 995Q122 1031 144.50 1055.50Q167 1080 207 1080Q247 1080 270 1055.50Q293 1031 293 995Q293 960 270 937Q247 914 207 914Q167 914 144.50 937Q122 960 122 995M133-273L62-220Q153-98 156 34L156 190L273 190L273 67Q273-146 133-273Z"  horiz-adv-x="381" vert-adv-y="2048"  />

      
      <glyph glyph-name="uni3c" unicode="&#x3c;" d="M201 655L777 357L777 228L84 607L84 706L777 1084L777 955L201 655Z"  horiz-adv-x="919" vert-adv-y="2048"  />

      
      <glyph glyph-name="uni3d" unicode="&#x3d;" d="M846 828L145 828L145 936L846 936L846 828M846 417L145 417L145 525L846 525L846 417Z"  horiz-adv-x="990" vert-adv-y="2048"  />

      
      <glyph glyph-name="uni3e" unicode="&#x3e;" d="M715 659L126 959L126 1086L837 708L837 609L126 230L126 356L715 659Z"  horiz-adv-x="933" vert-adv-y="2048"  />

      
      <glyph glyph-name="uni3f" unicode="&#x3f;" d="M333 405Q333 515 357.50 588.50Q382 662 464.50 758.50Q547 855 572 898Q597 941 610.50 989Q624 1037 624 1101Q624 1226 569 1296.50Q514 1367 419 1367Q323 1367 262 1298.50Q201 1230 199 1115L89 1115Q91 1279 183.50 1377.50Q276 1476 419 1476Q567 1476 651 1374.50Q735 1273 735 1102Q735 996 693.50 903.50Q652 811 535 680Q443 585 443 405L333 405M321 71Q321 106 340 129.50Q359 153 394 153Q429 153 448.50 129.50Q468 106 468 71Q468 37 448.50 14.50Q429-8 394-8Q359-8 340 14.50Q321 37 321 71Z"  horiz-adv-x="827" vert-adv-y="2048"  />

      
      <glyph glyph-name="uni40" unicode="&#x40;" d="M1491 512Q1486 359 1443 233.50Q1400 108 1327.50 44Q1255-20 1160-20Q1079-20 1027.50 29.50Q976 79 959 169Q914 75 850.50 27.50Q787-20 714-20Q596-20 537.50 100Q479 220 495 426Q514 677 617 832.50Q720 988 859 988Q966 988 1042 923L1089 880L1045 311Q1038 194 1069.50 130.50Q1101 67 1172 67Q1275 67 1338 188.50Q1401 310 1407 512Q1424 913 1280 1119.50Q1136 1326 843 1326Q667 1326 527 1220.50Q387 1115 306 922Q225 729 216 478Q205 228 270 36Q335-156 467-259Q599-362 780-362Q856-362 931.50-340Q1007-318 1058-283L1085-364Q1032-404 947.50-428.50Q863-453 777-453Q566-453 415-340Q264-227 188.50-15.50Q113 196 124 478Q133 755 226 971Q319 1187 480 1304Q641 1421 847 1421Q1059 1421 1208 1314Q1357 1207 1429 1002Q1501 797 1491 512M592 285Q601 186 638.50 132.50Q676 79 736 79Q882 79 954 325L993 850Q936 896 866 896Q776 896 709.50 809Q643 722 611.50 566.50Q580 411 592 285Z"  horiz-adv-x="1606" vert-adv-y="2048"  />

      
      <glyph glyph-name="uni41" unicode="&#x41;" d="M834 407L288 407L164 0L45 0L509 1456L615 1456L1079 0L960 0L834 407M321 514L801 514L561 1295L321 514Z"  horiz-adv-x="1123" vert-adv-y="2048"  />

      
      <glyph glyph-name="uni42" unicode="&#x42;" d="M172 0L172 1456L541 1456Q738 1456 839.50 1359.50Q941 1263 941 1075Q941 963 889 880Q837 797 745 760Q851 733 916.50 636.50Q982 540 982 410Q982 220 878 110Q774 0 583 0L172 0M286 699L286 106L588 106Q718 106 793 186Q868 266 868 408Q868 540 798.50 618Q729 696 605 699L286 699M286 804L551 804Q681 804 753 873Q825 942 825 1078Q825 1217 754.50 1282.50Q684 1348 541 1348L286 1348L286 804Z"  horiz-adv-x="1097" vert-adv-y="2048"  />

      
      <glyph glyph-name="uni43" unicode="&#x43;" d="M1045 454Q1029 209 913 94.50Q797-20 592-20Q381-20 259 139.50Q137 299 136 573L136 889Q136 1164 260.50 1320Q385 1476 601 1476Q805 1476 917 1359Q1029 1242 1045 1000L929 1000Q913 1198 835.50 1283Q758 1368 601 1368Q436 1368 344 1245Q252 1122 252 888L252 576Q252 344 341 215Q430 86 592 86Q762 86 838 171Q914 256 929 454L1045 454Z"  horiz-adv-x="1158" vert-adv-y="2048"  />

      
      <glyph glyph-name="uni44" unicode="&#x44;" d="M172 0L172 1456L515 1456Q752 1456 890 1304.50Q1028 1153 1032 887L1032 582Q1032 308 892.50 154Q753 0 501 0L172 0M286 1348L286 106L507 106Q702 106 809 226.50Q916 347 919 571L919 876Q919 1100 814.50 1224Q710 1348 512 1348L286 1348Z"  horiz-adv-x="1167" vert-adv-y="2048"  />

      
      <glyph glyph-name="uni45" unicode="&#x45;" d="M851 697L286 697L286 106L936 106L936 0L172 0L172 1456L931 1456L931 1348L286 1348L286 803L851 803L851 697Z"  horiz-adv-x="1018" vert-adv-y="2048"  />

      
      <glyph glyph-name="uni46" unicode="&#x46;" d="M846 678L286 678L286 0L172 0L172 1456L930 1456L930 1348L286 1348L286 786L846 786L846 678Z"  horiz-adv-x="1004" vert-adv-y="2048"  />

      
      <glyph glyph-name="uni47" unicode="&#x47;" d="M1059 169Q986 75 875 27.50Q764-20 632-20Q408-20 280 130Q152 280 147 546L147 900Q147 1179 268.50 1327.50Q390 1476 615 1476Q816 1476 930 1365Q1044 1254 1058 1045L944 1045Q926 1213 845.50 1290.50Q765 1368 616 1368Q438 1368 349.50 1249.50Q261 1131 261 902L261 566Q261 338 358.50 212Q456 86 632 86Q823 86 944 207L944 586L625 586L625 693L1059 693L1059 169Z"  horiz-adv-x="1215" vert-adv-y="2048"  />

      
      <glyph glyph-name="uni48" unicode="&#x48;" d="M1085 0L970 0L970 697L286 697L286 0L172 0L172 1456L286 1456L286 803L970 803L970 1456L1085 1456L1085 0Z"  horiz-adv-x="1259" vert-adv-y="2048"  />

      
      <glyph glyph-name="uni49" unicode="&#x49;" d="M307 0L193 0L193 1456L307 1456L307 0Z"  horiz-adv-x="500" vert-adv-y="2048"  />

      
      <glyph glyph-name="uni4a" unicode="&#x4a;" d="M707 1456L822 1456L822 433Q822 223 720 101.50Q618-20 449-20Q271-20 174 90.50Q77 201 77 401L191 401Q191 243 259.50 164.50Q328 86 449 86Q565 86 635.50 179Q706 272 707 428L707 1456Z"  horiz-adv-x="987" vert-adv-y="2048"  />

      
      <glyph glyph-name="uni4b" unicode="&#x4b;" d="M455 718L286 522L286 0L172 0L172 1456L286 1456L286 680L446 880L897 1456L1040 1456L532 808L1079 0L940 0L455 718Z"  horiz-adv-x="1124" vert-adv-y="2048"  />

      
      <glyph glyph-name="uni4c" unicode="&#x4c;" d="M287 106L887 106L887 0L172 0L172 1456L287 1456L287 106Z"  horiz-adv-x="950" vert-adv-y="2048"  />

      
      <glyph glyph-name="uni4d" unicode="&#x4d;" d="M323 1456L764 175L1207 1456L1358 1456L1358 0L1244 0L1244 631L1254 1266L808 0L720 0L276 1260L286 635L286 0L172 0L172 1456L323 1456Z"  horiz-adv-x="1531" vert-adv-y="2048"  />

      
      <glyph glyph-name="uni4e" unicode="&#x4e;" d="M1088 0L974 0L287 1240L287 0L172 0L172 1456L287 1456L975 214L975 1456L1088 1456L1088 0Z"  horiz-adv-x="1262" vert-adv-y="2048"  />

      
      <glyph glyph-name="uni4f" unicode="&#x4f;" d="M1075 570Q1075 288 951.50 134Q828-20 605-20Q384-20 258.50 134Q133 288 132 567L132 884Q132 1165 257 1320.50Q382 1476 603 1476Q827 1476 951 1320Q1075 1164 1075 881L1075 570M960 886Q960 1125 868 1245Q776 1365 603 1365Q436 1365 342 1247.50Q248 1130 246 896L246 570Q246 330 341 209.50Q436 89 605 89Q779 89 869.50 209Q960 329 960 570L960 886Z"  horiz-adv-x="1208" vert-adv-y="2048"  />

      
      <glyph glyph-name="uni50" unicode="&#x50;" d="M286 592L286 0L172 0L172 1456L595 1456Q788 1456 899 1340Q1010 1224 1010 1021Q1010 814 902.50 703Q795 592 593 592L286 592M286 699L595 699Q739 699 817.50 782.50Q896 866 896 1019Q896 1172 816.50 1260Q737 1348 596 1348L286 1348L286 699Z"  horiz-adv-x="1104" vert-adv-y="2048"  />

      
      <glyph glyph-name="uni51" unicode="&#x51;" d="M1071 570Q1071 375 1013 243.50Q955 112 848 45L1067-175L989-254L739-2Q674-20 600-20Q378-20 254 134.50Q130 289 128 563L128 884Q128 1165 253 1320.50Q378 1476 598 1476Q823 1476 947 1320Q1071 1164 1071 881L1071 570M956 886Q956 1125 864 1245Q772 1365 598 1365Q432 1365 338 1247.50Q244 1130 242 896L242 570Q242 330 337 209.50Q432 89 600 89Q772 89 862.50 205Q953 321 956 555L956 886Z"  horiz-adv-x="1208" vert-adv-y="2048"  />

      
      <glyph glyph-name="uni52" unicode="&#x52;" d="M625 606L285 606L285 0L170 0L170 1456L569 1456Q768 1456 877.50 1342.50Q987 1229 987 1027Q987 886 919 779.50Q851 673 736 632L1039 13L1039 0L917 0L625 606M285 712L589 712Q718 712 795 800.50Q872 889 872 1027Q872 1180 792 1264Q712 1348 568 1348L285 1348L285 712Z"  horiz-adv-x="1126" vert-adv-y="2048"  />

      
      <glyph glyph-name="uni53" unicode="&#x53;" d="M856 358Q856 480 786.50 550Q717 620 527 684Q337 748 248 827Q131 930 131 1099Q131 1266 246 1371Q361 1476 543 1476Q729 1476 847 1354Q965 1232 965 1040L850 1040Q850 1187 767.50 1277.50Q685 1368 543 1368Q405 1368 325.50 1293.50Q246 1219 246 1101Q246 991 321 921Q396 851 560 796.50Q724 742 808 683.50Q892 625 932 546Q972 467 972 360Q972 189 856.50 84.50Q741-20 551-20Q423-20 317.50 32.50Q212 85 152.50 183.50Q93 282 93 416L207 416Q207 262 300 174Q393 86 551 86Q689 86 772.50 160Q856 234 856 358Z"  horiz-adv-x="1059" vert-adv-y="2048"  />

      
      <glyph glyph-name="uni54" unicode="&#x54;" d="M1005 1348L591 1348L591 0L476 0L476 1348L63 1348L63 1456L1005 1456L1005 1348Z"  horiz-adv-x="1067" vert-adv-y="2048"  />

      
      <glyph glyph-name="uni55" unicode="&#x55;" d="M1018 1456L1018 423Q1017 212 904.50 96Q792-20 585-20Q375-20 263.50 94.50Q152 209 152 427L152 1456L266 1456L266 431Q266 86 585 86Q899 86 903 421L903 1456L1018 1456Z"  horiz-adv-x="1168" vert-adv-y="2048"  />

      
      <glyph glyph-name="uni56" unicode="&#x56;" d="M550 182L553 166L557 182L937 1456L1063 1456L608 0L500 0L45 1456L170 1456L550 182Z"  horiz-adv-x="1107" vert-adv-y="2048"  />

      
      <glyph glyph-name="uni57" unicode="&#x57;" d="M405 396L440 180L484 386L745 1456L847 1456L1104 386L1147 178L1185 396L1400 1456L1516 1456L1206 0L1098 0L825 1135L796 1270L768 1135L489 0L380 0L71 1456L188 1456L405 396Z"  horiz-adv-x="1579" vert-adv-y="2048"  />

      
      <glyph glyph-name="uni58" unicode="&#x58;" d="M549 842L884 1456L1020 1456L619 738L1032 0L895 0L549 633L202 0L66 0L481 738L78 1456L214 1456L549 842Z"  horiz-adv-x="1097" vert-adv-y="2048"  />

      
      <glyph glyph-name="uni59" unicode="&#x59;" d="M534 664L897 1456L1028 1456L590 548L590 0L476 0L476 548L39 1456L173 1456L534 664Z"  horiz-adv-x="1070" vert-adv-y="2048"  />

      
      <glyph glyph-name="uni5a" unicode="&#x5a;" d="M228 106L977 106L977 0L95 0L95 95L815 1349L115 1349L115 1456L950 1456L950 1365L228 106Z"  horiz-adv-x="1069" vert-adv-y="2048"  />

      
      <glyph glyph-name="uni5b" unicode="&#x5b;" d="M439 1560L265 1560L265-208L439-208L439-312L154-312L154 1664L439 1664L439 1560Z"  horiz-adv-x="461" vert-adv-y="2048"  />

      
      <glyph glyph-name="uni5c" unicode="&#x5c;" d="M59 1456L167 1456L677-125L570-125L59 1456Z"  horiz-adv-x="723" vert-adv-y="2048"  />

      
      <glyph glyph-name="uni5d" unicode="&#x5d;" d="M21 1664L307 1664L307-312L21-312L21-208L196-208L196 1560L21 1560L21 1664Z"  horiz-adv-x="461" vert-adv-y="2048"  />

      
      <glyph glyph-name="uni5e" unicode="&#x5e;" d="M374 1295L189 729L82 729L334 1456L415 1456L665 729L559 729L374 1295Z"  horiz-adv-x="756" vert-adv-y="2048"  />

      
      <glyph glyph-name="uni5f" unicode="&#x5f;" d="M767-103L21-103L21 0L767 0L767-103Z"  horiz-adv-x="789" vert-adv-y="2048"  />

      
      <glyph glyph-name="uni60" unicode="&#x60;" d="M438 1255L329 1255L103 1536L247 1536L438 1255Z"  horiz-adv-x="585" vert-adv-y="2048"  />

      
      <glyph glyph-name="uni61" unicode="&#x61;" d="M720 0Q705 52 700 150Q650 69 571.50 24.50Q493-20 401-20Q261-20 183 59Q105 138 105 284Q105 443 213.50 536Q322 629 513 630L699 630L699 781Q699 897 641.50 947.50Q584 998 473 998Q370 998 304 938Q238 878 238 783L127 784Q127 917 227 1009.50Q327 1102 478 1102Q641 1102 725 1020Q809 938 809 781L809 250Q809 91 838 12L838 0L720 0M415 87Q513 87 588.50 138Q664 189 699 274L699 537L523 537Q371 535 294 469.50Q217 404 217 293Q217 87 415 87Z"  horiz-adv-x="964" vert-adv-y="2048"  />

      
      <glyph glyph-name="uni62" unicode="&#x62;" d="M887 490Q887 240 799.50 110Q712-20 539-20Q348-20 256 145L251 0L148 0L148 1536L258 1536L258 931Q349 1102 537 1102Q712 1102 798 978.50Q884 855 887 610L887 490M776 591Q776 797 715 896Q654 995 515 995Q330 995 258 800L258 264Q292 179 358 132.50Q424 86 517 86Q650 86 712.50 182.50Q775 279 776 483L776 591Z"  horiz-adv-x="996" vert-adv-y="2048"  />

      
      <glyph glyph-name="uni63" unicode="&#x63;" d="M490 83Q606 83 668 148Q730 213 735 335L842 335Q834 169 736 74.50Q638-20 490-20Q297-20 198.50 103.50Q100 227 98 470L98 602Q98 850 196.50 976Q295 1102 489 1102Q650 1102 743 1000.50Q836 899 842 717L735 717Q730 851 667 924.50Q604 998 489 998Q345 998 277.50 901Q210 804 210 603L210 480Q210 272 278 177.50Q346 83 490 83Z"  horiz-adv-x="929" vert-adv-y="2048"  />

      
      <glyph glyph-name="uni64" unicode="&#x64;" d="M108 591Q108 845 197 973.50Q286 1102 461 1102Q645 1102 736 937L736 1536L847 1536L847 0L743 0L738 139Q647-20 460-20Q289-20 199.50 110Q110 240 108 479L108 591M221 490Q221 282 283.50 184Q346 86 482 86Q657 86 736 253L736 814Q661 995 483 995Q347 995 284.50 898Q222 801 221 598L221 490Z"  horiz-adv-x="999" vert-adv-y="2048"  />

      
      <glyph glyph-name="uni65" unicode="&#x65;" d="M505-20Q314-20 206 105Q98 230 96 461L96 593Q96 831 200 966.50Q304 1102 486 1102Q662 1102 754.50 987Q847 872 849 635L849 531L206 531L206 470Q206 284 285.50 183Q365 82 510 82Q670 82 769 199L827 125Q721-20 505-20M486 998Q355 998 284.50 905.50Q214 813 207 635L738 635L738 664Q730 998 486 998Z"  horiz-adv-x="937" vert-adv-y="2048"  />

      
      <glyph glyph-name="uni66" unicode="&#x66;" d="M221 0L221 982L72 982L72 1082L221 1082L221 1224Q223 1385 295.50 1471Q368 1557 496 1557Q554 1557 603 1540L595 1438Q551 1449 505 1449Q424 1449 378.50 1388.50Q333 1328 333 1215L333 1082L545 1082L545 982L333 982L333 0L221 0Z"  horiz-adv-x="615" vert-adv-y="2048"  />

      
      <glyph glyph-name="uni67" unicode="&#x67;" d="M109 591Q109 847 197 974.50Q285 1102 461 1102Q648 1102 739 931L745 1082L848 1082L848-31Q847-227 754.50-329Q662-431 485-431Q396-431 305.50-387.50Q215-344 168-281L220-201Q331-328 477-328Q612-328 673.50-256Q735-184 736-37L736 135Q645-20 460-20Q291-20 201.50 107Q112 234 109 474L109 591M221 490Q221 282 284 184Q347 86 482 86Q662 86 736 257L736 810Q661 995 484 995Q348 995 285 898Q222 801 221 598L221 490Z"  horiz-adv-x="996" vert-adv-y="2048"  />

      
      <glyph glyph-name="uni68" unicode="&#x68;" d="M259 912Q307 999 380.50 1050.50Q454 1102 549 1102Q832 1102 839 725L839 0L729 0L729 713Q728 858 678 927Q628 996 521 996Q434 996 364.50 930.50Q295 865 259 751L259 0L148 0L148 1536L259 1536L259 912Z"  horiz-adv-x="985" vert-adv-y="2048"  />

      
      <glyph glyph-name="uni69" unicode="&#x69;" d="M272 0L160 0L160 1082L272 1082L272 0M144 1394Q144 1428 163 1452Q182 1476 217 1476Q252 1476 271.50 1452Q291 1428 291 1394Q291 1360 271.50 1336.50Q252 1313 217 1313Q182 1313 163 1336.50Q144 1360 144 1394Z"  horiz-adv-x="431" vert-adv-y="2048"  />

      
      <glyph glyph-name="uni6a" unicode="&#x6a;" d="M267 1082L267-120Q267-437 28-437Q-19-437-61-418L-60-317Q-21-330 14-330Q156-330 156-127L156 1082L267 1082M139 1394Q139 1428 157.50 1452Q176 1476 211 1476Q246 1476 265.50 1452Q285 1428 285 1394Q285 1360 265.50 1336.50Q246 1313 211 1313Q176 1313 157.50 1336.50Q139 1360 139 1394Z"  horiz-adv-x="436" vert-adv-y="2048"  />

      
      <glyph glyph-name="uni6b" unicode="&#x6b;" d="M373 541L260 415L260 0L148 0L148 1536L260 1536L260 559L353 677L688 1082L826 1082L446 625L862 0L730 0L373 541Z"  horiz-adv-x="888" vert-adv-y="2048"  />

      
      <glyph glyph-name="uni6c" unicode="&#x6c;" d="M272 0L160 0L160 1536L272 1536L272 0Z"  horiz-adv-x="431" vert-adv-y="2048"  />

      
      <glyph glyph-name="uni6d" unicode="&#x6d;" d="M250 1082L253 920Q354 1102 543 1102Q752 1102 813 903Q864 1002 944.50 1052Q1025 1102 1120 1102Q1412 1102 1419 726L1419 0L1308 0L1308 719Q1306 859 1256 927.50Q1206 996 1092 996Q989 994 918 916Q847 838 837 720L837 0L725 0L725 716Q725 858 672.50 927Q620 996 509 996Q418 996 351.50 933Q285 870 255 753L255 0L144 0L144 1082L250 1082Z"  horiz-adv-x="1561" vert-adv-y="2048"  />

      
      <glyph glyph-name="uni6e" unicode="&#x6e;" d="M254 1082L257 910Q305 998 379.50 1050Q454 1102 549 1102Q832 1102 839 725L839 0L729 0L729 713Q728 858 678 927Q628 996 521 996Q434 996 364.50 930.50Q295 865 259 751L259 0L148 0L148 1082L254 1082Z"  horiz-adv-x="986" vert-adv-y="2048"  />

      
      <glyph glyph-name="uni6f" unicode="&#x6f;" d="M106 596Q106 830 212 966Q318 1102 501 1102Q685 1102 790.50 968Q896 834 897 599L897 484Q897 246 790.50 113Q684-20 503-20Q322-20 216 110Q110 240 106 468L106 596M218 484Q218 297 293.50 190Q369 83 503 83Q640 83 712.50 186Q785 289 786 481L786 596Q786 783 710 890.50Q634 998 501 998Q372 998 296 893Q220 788 218 604L218 484Z"  horiz-adv-x="1005" vert-adv-y="2048"  />

      
      <glyph glyph-name="uni70" unicode="&#x70;" d="M886 490Q886 240 799 110Q712-20 539-20Q351-20 258 130L258-416L148-416L148 1082L250 1082L255 934Q351 1102 536 1102Q711 1102 798 978Q885 854 886 599L886 490M775 591Q775 799 710.50 897Q646 995 509 995Q333 995 258 816L258 246Q333 83 511 83Q645 83 709.50 181Q774 279 775 483L775 591Z"  horiz-adv-x="996" vert-adv-y="2048"  />

      
      <glyph glyph-name="uni71" unicode="&#x71;" d="M108 591Q108 848 197 975Q286 1102 463 1102Q644 1102 737 942L743 1082L847 1082L847-416L735-416L735 126Q640-20 462-20Q289-20 199.50 107Q110 234 108 479L108 591M221 490Q221 282 284.50 182.50Q348 83 484 83Q655 83 735 242L735 825Q654 998 485 998Q349 998 285.50 900Q222 802 221 598L221 490Z"  horiz-adv-x="1003" vert-adv-y="2048"  />

      
      <glyph glyph-name="uni72" unicode="&#x72;" d="M572 978Q532 985 502 985Q410 985 347.50 922Q285 859 259 747L259 0L148 0L148 1082L257 1082L259 920Q338 1102 507 1102Q551 1102 574 1089L572 978Z"  horiz-adv-x="619" vert-adv-y="2048"  />

      
      <glyph glyph-name="uni73" unicode="&#x73;" d="M689 266Q689 336 631 388.50Q573 441 434.50 503.50Q296 566 241 607.50Q186 649 160 698Q134 747 134 814Q134 939 224 1020.50Q314 1102 457 1102Q611 1102 703 1015Q795 928 795 785L684 785Q684 877 621 937.50Q558 998 457 998Q359 998 301.50 948Q244 898 244 818Q244 753 288 712Q332 671 478 601Q629 535 686 492Q743 449 772 396.50Q801 344 801 272Q801 138 708 59Q615-20 463-20Q302-20 202.50 68Q103 156 103 295L215 295Q220 194 282.50 138.50Q345 83 463 83Q565 83 627 133Q689 183 689 266Z"  horiz-adv-x="914" vert-adv-y="2048"  />

      
      <glyph glyph-name="uni74" unicode="&#x74;" d="M315 1358L315 1082L500 1082L500 982L315 982L315 263Q315 174 341.50 130.50Q368 87 430 87Q457 87 510 97L513-3Q475-20 404-20Q209-20 204 248L204 982L37 982L37 1082L204 1082L204 1358L315 1358Z"  horiz-adv-x="594" vert-adv-y="2048"  />

      
      <glyph glyph-name="uni75" unicode="&#x75;" d="M728 129Q636-20 443-20Q296-20 221 82Q146 184 145 382L145 1082L255 1082L255 385Q255 238 307 162Q359 86 457 86Q667 86 726 290L726 1082L838 1082L838 0L730 0L728 129Z"  horiz-adv-x="986" vert-adv-y="2048"  />

      
      <glyph glyph-name="uni76" unicode="&#x76;" d="M435 174L701 1082L815 1082L478 0L390 0L51 1082L165 1082L435 174Z"  horiz-adv-x="869" vert-adv-y="2048"  />

      
      <glyph glyph-name="uni77" unicode="&#x77;" d="M376 246L385 186L397 251L618 1082L711 1082L930 258L946 173L959 249L1146 1082L1260 1082L995 0L902 0L667 860L662 886L658 859L427 0L333 0L70 1082L183 1082L376 246Z"  horiz-adv-x="1336" vert-adv-y="2048"  />

      
      <glyph glyph-name="uni78" unicode="&#x78;" d="M438 645L675 1082L806 1082L499 551L818 0L688 0L439 455L189 0L59 0L377 551L71 1082L201 1082L438 645Z"  horiz-adv-x="880" vert-adv-y="2048"  />

      
      <glyph glyph-name="uni79" unicode="&#x79;" d="M436 183L694 1082L813 1082L432-173L411-233Q334-437 175-437Q137-437 95-423L94-321Q117-328 145-328Q217-328 263-285Q309-242 339-146L385 7L45 1082L167 1082L436 183Z"  horiz-adv-x="857" vert-adv-y="2048"  />

      
      <glyph glyph-name="uni7a" unicode="&#x7a;" d="M225 103L809 103L809 0L93 0L93 90L640 977L108 977L108 1082L775 1082L775 991L225 103Z"  horiz-adv-x="880" vert-adv-y="2048"  />

      
      <glyph glyph-name="uni7b" unicode="&#x7b;" d="M554-402Q273-303 267 44L267 281Q267 543 76 543L76 649Q262 649 267 893L267 1148Q273 1498 554 1597L578 1516Q384 1442 379 1146L379 916Q379 669 221 596Q379 519 379 275L379 52Q382-242 580-321L554-402Z"  horiz-adv-x="610" vert-adv-y="2048"  />

      
      <glyph glyph-name="uni7c" unicode="&#x7c;" d="M279-270L178-270L178 1456L279 1456L279-270Z"  horiz-adv-x="452" vert-adv-y="2048"  />

      
      <glyph glyph-name="uni7d" unicode="&#x7d;" d="M29-321Q230-241 231 57L231 275Q231 523 395 595Q231 667 231 913L231 1146Q226 1441 31 1516L55 1597Q200 1546 271 1431.50Q342 1317 342 1132L342 910Q342 649 533 649L533 543Q342 543 342 278L342 55Q341-129 269-240.50Q197-352 55-402L29-321Z"  horiz-adv-x="610" vert-adv-y="2048"  />

      
      <glyph glyph-name="uni7e" unicode="&#x7e;" d="M1075 765Q1075 617 1003.50 519.50Q932 422 822 422Q722 422 632 505L516 623Q457 679 393 679Q320 679 279.50 619.50Q239 560 239 449L139 448Q139 596 209 692Q279 788 393 788Q454 788 510.50 757Q567 726 644 644Q702 577 740.50 554Q779 531 822 531Q895 531 937.50 595.50Q980 660 980 765L1075 765Z"  horiz-adv-x="1216" vert-adv-y="2048"  />

      
      <glyph glyph-name="unia1" unicode="&#xa1;" d="M165 689L268 689L275-359L159-359L165 689M285 1021Q285 987 265.50 963Q246 939 211 939Q176 939 156.50 963Q137 987 137 1021Q137 1055 156.50 1078.50Q176 1102 211 1102Q246 1102 265.50 1078.50Q285 1055 285 1021Z"  horiz-adv-x="427" vert-adv-y="2048"  />

      
      <glyph glyph-name="unia2" unicode="&#xa2;" d="M509 83Q608 83 677.50 151.50Q747 220 754 335L861 335Q855 200 770.50 101.50Q686 3 559-16L559-245L448-245L448-15Q292 10 205 154.50Q118 299 118 526L118 562Q118 785 206.50 929Q295 1073 448 1097L448 1318L559 1318L559 1098Q690 1080 772.50 977Q855 874 861 717L754 717Q748 842 680.50 920Q613 998 508 998Q375 998 302 882.50Q229 767 229 552L229 520Q229 315 302 199Q375 83 509 83Z"  horiz-adv-x="977" vert-adv-y="2048"  />

      
      <glyph glyph-name="unia3" unicode="&#xa3;" d="M366 644L374 369Q376 196 318 106L944 106L944 0L101 0L101 106L180 106Q217 118 239.50 194.50Q262 271 259 369L251 644L98 644L98 751L248 751L241 1039Q241 1239 335.50 1357.50Q430 1476 588 1476Q739 1476 830 1372.50Q921 1269 921 1088L807 1088Q807 1223 745 1296Q683 1369 579 1369Q476 1369 416 1280Q356 1191 356 1039L363 751L649 751L649 644L366 644Z"  horiz-adv-x="1026" vert-adv-y="2048"  />

      
      <glyph glyph-name="unia4" unicode="&#xa4;" d="M1131 133Q1053 61 953 20.50Q853-20 740-20Q514-20 349 132L194-26L109 62L267 222Q144 392 144 608Q144 836 276 1004L109 1175L194 1264L361 1094Q526 1234 740 1234Q954 1234 1119 1092L1289 1265L1375 1175L1205 1001Q1334 829 1334 608Q1334 394 1213 226L1375 62L1289-27L1131 133M257 608Q257 470 321 351.50Q385 233 498 163Q611 93 740 93Q868 93 980.50 162.50Q1093 232 1157 351.50Q1221 471 1221 608Q1221 744 1156.50 863.50Q1092 983 980 1051.50Q868 1120 740 1120Q611 1120 498.50 1051Q386 982 321.50 863.50Q257 745 257 608Z"  horiz-adv-x="1481" vert-adv-y="2048"  />

      
      <glyph glyph-name="unia5" unicode="&#xa5;" d="M465 748L762 1456L890 1456L557 707L814 707L814 616L519 616L519 414L814 414L814 324L519 324L519 0L405 0L405 324L113 324L113 414L405 414L405 616L113 616L113 707L370 707L39 1456L168 1456L465 748Z"  horiz-adv-x="930" vert-adv-y="2048"  />

      
      <glyph glyph-name="unia6" unicode="&#xa6;" d="M159-270L159 502L279 502L279-270L159-270M279 698L159 698L159 1456L279 1456L279 698Z"  horiz-adv-x="444" vert-adv-y="2048"  />

      
      <glyph glyph-name="unia7" unicode="&#xa7;" d="M964 431Q964 332 912.50 262.50Q861 193 770 159Q846 112 886.50 41.50Q927-29 927-138Q927-302 820.50-398.50Q714-495 530-495Q331-495 217.50-382Q104-269 104-64L215-62Q215-216 299.50-303.50Q384-391 530-391Q662-391 738.50-321.50Q815-252 815-140Q815-34 750 26Q685 86 508 145Q351 193 270.50 245.50Q190 298 149.50 372Q109 446 109 551Q109 651 158 721Q207 791 295 825Q223 873 184.50 942Q146 1011 146 1119Q146 1281 255.50 1378.50Q365 1476 545 1476Q733 1476 839 1363.50Q945 1251 945 1045L834 1045Q834 1194 753.50 1283Q673 1372 545 1372Q411 1372 334.50 1304.50Q258 1237 258 1122Q258 1011 317.50 952.50Q377 894 567 829Q732 778 810.50 727.50Q889 677 926.50 606Q964 535 964 431M522 727Q454 747 401 770Q312 755 266 698Q220 641 220 553Q220 473 247 426Q274 379 339.50 341Q405 303 550 253L656 215Q745 228 799 286Q853 344 853 428Q853 534 784.50 597Q716 660 522 727Z"  horiz-adv-x="1083" vert-adv-y="2048"  />

      
      <glyph glyph-name="unia8" unicode="&#xa8;" d="M137 1395Q137 1430 159 1453.50Q181 1477 219 1477Q257 1477 279.50 1453.50Q302 1430 302 1395Q302 1361 279.50 1338Q257 1315 219 1315Q181 1315 159 1338Q137 1361 137 1395M575 1394Q575 1429 597 1452.50Q619 1476 657 1476Q695 1476 717.50 1452.50Q740 1429 740 1394Q740 1360 717.50 1337Q695 1314 657 1314Q619 1314 597 1337Q575 1360 575 1394Z"  horiz-adv-x="881" vert-adv-y="2048"  />

      
      <glyph glyph-name="unia9" unicode="&#xa9;" d="M1121 606Q1121 454 1039 373Q957 292 807 292Q657 292 565.50 398Q474 504 474 685L474 777Q474 951 566 1057.50Q658 1164 807 1164Q956 1164 1039 1083.50Q1122 1003 1122 851L1023 851Q1023 1072 807 1072Q699 1072 636 990.50Q573 909 573 774L573 679Q573 547 635.50 466Q698 385 807 385Q912 385 967 437Q1022 489 1022 606L1121 606M192 729Q192 552 274 398.50Q356 245 503 155.50Q650 66 817 66Q980 66 1125 152.50Q1270 239 1355.50 393Q1441 547 1441 729Q1441 907 1358 1059Q1275 1211 1129.50 1299.50Q984 1388 817 1388Q646 1388 500 1298Q354 1208 273 1056.50Q192 905 192 729M107 729Q107 931 200.50 1104Q294 1277 459.50 1376.50Q625 1476 817 1476Q1009 1476 1174 1376.50Q1339 1277 1432.50 1104Q1526 931 1526 729Q1526 532 1436 360Q1346 188 1180.50 83.50Q1015-21 817-21Q620-21 454.50 82.50Q289 186 198 358Q107 530 107 729Z"  horiz-adv-x="1637" vert-adv-y="2048"  />

      
      <glyph glyph-name="uniaa" unicode="&#xaa;" d="M560 705L543 796Q516 754 469.50 722.50Q423 691 359 691Q258 691 204 750.50Q150 810 150 909Q150 1019 220 1079.50Q290 1140 428 1140L540 1140L540 1201Q540 1378 411 1378Q339 1378 297.50 1343Q256 1308 256 1236L157 1243Q157 1347 228.50 1411.50Q300 1476 411 1476Q516 1476 578 1404.50Q640 1333 640 1199L640 884Q640 792 662 705L560 705M379 788Q419 788 465.50 815Q512 842 540 887L540 1057L435 1057Q250 1057 250 913Q250 788 379 788Z"  horiz-adv-x="802" vert-adv-y="2048"  />

      
      <glyph glyph-name="uniab" unicode="&#xab;" d="M232 537L461 148L368 148L120 528L120 547L368 926L461 926L232 537M495 537L724 148L631 148L383 528L383 547L631 926L724 926L495 537Z"  horiz-adv-x="828" vert-adv-y="2048"  />

      
      <glyph glyph-name="uniac" unicode="&#xac;" d="M810 385L698 385L698 668L124 668L124 777L810 777L810 385Z"  horiz-adv-x="981" vert-adv-y="2048"  />

      
      <glyph glyph-name="uniae" unicode="&#xae;" d="M102 729Q102 931 195.50 1104Q289 1277 454.50 1376.50Q620 1476 812 1476Q1004 1476 1169.50 1376.50Q1335 1277 1428.50 1104Q1522 931 1522 729Q1522 530 1431 358Q1340 186 1174.50 82.50Q1009-21 812-21Q615-21 449.50 82.50Q284 186 193 358Q102 530 102 729M812 66Q979 66 1124.50 154.50Q1270 243 1353 396.50Q1436 550 1436 729Q1436 905 1355 1056.50Q1274 1208 1128.50 1298Q983 1388 812 1388Q644 1388 499.50 1300.50Q355 1213 271 1061Q187 909 187 729Q187 549 271 395.50Q355 242 500.50 154Q646 66 812 66M650 666L650 321L552 321L552 1160L810 1160Q957 1160 1036 1098.50Q1115 1037 1115 912Q1115 780 975 715Q1102 669 1102 509Q1102 380 1119 337L1119 321L1017 321Q1003 357 1003 503Q1003 592 965.50 629Q928 666 838 666L650 666M650 758L831 758Q912 758 964.50 799.50Q1017 841 1017 910Q1017 994 973.50 1030.50Q930 1067 824 1069L650 1069L650 758Z"  horiz-adv-x="1642" vert-adv-y="2048"  />

      
      <glyph glyph-name="uniaf" unicode="&#xaf;" d="M664 1342L136 1342L136 1440L664 1440L664 1342Z"  horiz-adv-x="784" vert-adv-y="2048"  />

      
      <glyph glyph-name="unib0" unicode="&#xb0;" d="M143 1226Q143 1329 216 1402.50Q289 1476 388 1476Q487 1476 558.50 1402.50Q630 1329 630 1226Q630 1123 559.50 1051Q489 979 388 979Q287 979 215 1051Q143 1123 143 1226M233 1226Q233 1161 277 1116Q321 1071 388 1071Q456 1071 498 1116.50Q540 1162 540 1226Q540 1294 497 1339Q454 1384 388 1384Q323 1384 278 1339Q233 1294 233 1226Z"  horiz-adv-x="774" vert-adv-y="2048"  />

      
      <glyph glyph-name="unib1" unicode="&#xb1;" d="M538 830L862 830L862 726L538 726L538 289L436 289L436 726L92 726L92 830L436 830L436 1267L538 1267L538 830M830 0L128 0L128 103L830 103L830 0Z"  horiz-adv-x="953" vert-adv-y="2048"  />

      
      <glyph glyph-name="unib2" unicode="&#xb2;" d="M583 665L99 665L99 741L363 1050Q454 1162 454 1237Q454 1299 421 1337Q388 1375 325 1375Q255 1375 217 1331.50Q179 1288 179 1215L82 1215Q82 1324 149.50 1394.50Q217 1465 323 1465Q429 1465 490 1403.50Q551 1342 551 1238Q551 1182 522.50 1123Q494 1064 418 976L221 754L583 754L583 665Z"  horiz-adv-x="664" vert-adv-y="2048"  />

      
      <glyph glyph-name="unib3" unicode="&#xb3;" d="M244 1107L313 1107Q381 1108 420 1145Q459 1182 459 1241Q459 1304 423 1339.50Q387 1375 324 1375Q263 1375 224.50 1339Q186 1303 186 1245L89 1245Q89 1339 154.50 1402Q220 1465 323 1465Q433 1465 494.50 1404.50Q556 1344 556 1243Q556 1186 524.50 1139Q493 1092 434 1068Q569 1026 569 880Q569 777 501.50 715.50Q434 654 324 654Q215 654 146.50 717.50Q78 781 78 884L176 884Q176 822 218 782Q260 742 327 742Q397 742 435 780Q473 818 473 884Q473 1025 308 1025L244 1025L244 1107Z"  horiz-adv-x="664" vert-adv-y="2048"  />

      
      <glyph glyph-name="unib4" unicode="&#xb4;" d="M315 1536L460 1536L229 1255L124 1255L315 1536Z"  horiz-adv-x="576" vert-adv-y="2048"  />

      
      <glyph glyph-name="unib5" unicode="&#xb5;" d="M265 1082L265 427Q268 259 318.50 171Q369 83 479 83Q581 83 644.50 135Q708 187 735 299L735 1082L847 1082L847 0L746 0L739 145Q659-20 486-20Q337-20 265 101L265-416L155-416L155 1082L265 1082Z"  horiz-adv-x="1001" vert-adv-y="2048"  />

      
      <glyph glyph-name="unib6" unicode="&#xb6;" d="M586 0L586 520L494 520Q369 521 277 579Q185 637 136 743Q87 849 87 988Q87 1197 195.50 1325Q304 1453 492 1456L698 1456L698 0L586 0Z"  horiz-adv-x="862" vert-adv-y="2048"  />

      
      <glyph glyph-name="unib7" unicode="&#xb7;" d="M154 717Q154 753 174 777.50Q194 802 230 802Q266 802 286.50 777.50Q307 753 307 717Q307 682 286.50 658.50Q266 635 230 635Q194 635 174 658.50Q154 682 154 717Z"  horiz-adv-x="467" vert-adv-y="2048"  />

      
      <glyph glyph-name="unib8" unicode="&#xb8;" d="M233 0L223-64Q359-86 359-235Q359-326 293-380.50Q227-435 111-435L105-356Q176-356 222.50-325Q269-294 269-237Q269-186 239.50-161.50Q210-137 123-128L148 0L233 0Z"  horiz-adv-x="460" vert-adv-y="2048"  />

      
      <glyph glyph-name="unib9" unicode="&#xb9;" d="M415 665L317 665L317 1325L125 1256L125 1348L402 1455L415 1455L415 665Z"  horiz-adv-x="664" vert-adv-y="2048"  />

      
      <glyph glyph-name="uniba" unicode="&#xba;" d="M131 1132Q131 1286 207 1381Q283 1476 406 1476Q531 1476 606 1380.50Q681 1285 681 1128L681 1033Q681 879 605.50 784.50Q530 690 407 690Q284 690 207.50 783.50Q131 877 131 1038L131 1132M231 1033Q231 918 277.50 852.50Q324 787 407 787Q486 787 533 851Q580 915 581 1030L581 1132Q581 1244 534 1311Q487 1378 406 1378Q325 1378 278 1311Q231 1244 231 1127L231 1033Z"  horiz-adv-x="816" vert-adv-y="2048"  />

      
      <glyph glyph-name="unibb" unicode="&#xbb;" d="M209 944L457 560L457 541L209 161L114 161L343 550L114 944L209 944M482 944L730 560L730 541L482 161L387 161L616 550L387 944L482 944Z"  horiz-adv-x="824" vert-adv-y="2048"  />

      
      <glyph glyph-name="unibc" unicode="&#xbc;" d="M402 664L304 664L304 1324L112 1255L112 1347L389 1454L402 1454L402 664M372 128L306 177L903 1315L970 1266L372 128M1096 276L1200 276L1200 186L1096 186L1096 0L1000 0L1000 186L668 186L665 254L995 789L1096 789L1096 276M767 276L1000 276L1000 652L976 607L767 276Z"  horiz-adv-x="1289" vert-adv-y="2048"  />

      
      <glyph glyph-name="unibd" unicode="&#xbd;" d="M335 128L269 177L866 1315L933 1266L335 128M391 664L293 664L293 1324L101 1255L101 1347L378 1454L391 1454L391 664M1233 0L749 0L749 76L1013 385Q1104 497 1104 572Q1104 634 1071 672Q1038 710 975 710Q905 710 867 666.50Q829 623 829 550L732 550Q732 659 799.50 729.50Q867 800 973 800Q1079 800 1140 738.50Q1201 677 1201 573Q1201 517 1172.50 458Q1144 399 1068 311L871 89L1233 89L1233 0Z"  horiz-adv-x="1347" vert-adv-y="2048"  />

      
      <glyph glyph-name="unibe" unicode="&#xbe;" d="M490 128L424 177L1021 1315L1088 1266L490 128M1188 276L1292 276L1292 186L1188 186L1188 0L1092 0L1092 186L760 186L757 254L1087 789L1188 789L1188 276M859 276L1092 276L1092 652L1068 607L859 276M284 1107L353 1107Q421 1108 460 1145Q499 1182 499 1241Q499 1304 463 1339.50Q427 1375 364 1375Q303 1375 264.50 1339Q226 1303 226 1245L129 1245Q129 1339 194.50 1402Q260 1465 363 1465Q473 1465 534.50 1404.50Q596 1344 596 1243Q596 1186 564.50 1139Q533 1092 474 1068Q609 1026 609 880Q609 777 541.50 715.50Q474 654 364 654Q255 654 186.50 717.50Q118 781 118 884L216 884Q216 822 258 782Q300 742 367 742Q437 742 475 780Q513 818 513 884Q513 1025 348 1025L284 1025L284 1107Z"  horiz-adv-x="1376" vert-adv-y="2048"  />

      
      <glyph glyph-name="unibf" unicode="&#xbf;" d="M489 687Q487 561 463.50 501Q440 441 363.50 350.50Q287 260 258.50 211.50Q230 163 215.50 110.50Q201 58 201-8Q201-136 256-205Q311-274 415-274Q511-274 570.50-204Q630-134 630-20L741-20Q739-189 649.50-286Q560-383 415-383Q263-383 177-283Q91-183 91-10Q91 101 136.50 203.50Q182 306 299 437Q342 482 359.50 533.50Q377 585 377 687L489 687M501 1021Q501 986 482 962.50Q463 939 428 939Q393 939 373.50 962.50Q354 986 354 1021Q354 1055 373.50 1078Q393 1101 428 1101Q463 1101 482 1078Q501 1055 501 1021Z"  horiz-adv-x="834" vert-adv-y="2048"  />

      
      <glyph glyph-name="unic6" unicode="&#xc6;" d="M1560 0L863 0L849 388L356 388L165 0L29 0L769 1456L1509 1456L1509 1352L926 1352L945 810L1440 810L1440 706L949 706L970 103L1560 103L1560 0M412 503L845 503L816 1324L412 503Z"  horiz-adv-x="1614" vert-adv-y="2048"  />

      
      <glyph glyph-name="unid7" unicode="&#xd7;" d="M97 185L396 548L108 898L181 980L466 633L752 980L824 898L536 548L835 185L762 104L466 463L170 104L97 185Z"  horiz-adv-x="944" vert-adv-y="2048"  />

      
      <glyph glyph-name="unid8" unicode="&#xd8;" d="M1083 650Q1083 450 1024.50 297.50Q966 145 857 62.50Q748-20 605-20Q452-20 338 74L255-84L162-84L278 135Q124 321 124 657L124 804Q124 1003 183 1156Q242 1309 351.50 1392.50Q461 1476 603 1476Q788 1476 915 1339L1003 1505L1096 1505L970 1267Q1080 1089 1083 817L1083 650M238 650Q238 391 335 243L859 1233Q762 1365 603 1365Q434 1365 336 1214Q238 1063 238 800L238 650M969 806Q969 1006 907 1149L391 174Q480 89 605 89Q776 89 872.50 239Q969 389 969 655L969 806Z"  horiz-adv-x="1208" vert-adv-y="2048"  />

      
      <glyph glyph-name="unide" unicode="&#xde;" d="M282 1456L282 1153L549 1153Q730 1152 837 1039.50Q944 927 944 738Q944 550 837.50 436.50Q731 323 544 323L282 323L282 0L171 0L171 1456L282 1456M282 1049L282 427L547 427Q679 427 756 513Q833 599 833 736Q833 876 757 962Q681 1048 550 1049L282 1049Z"  horiz-adv-x="1059" vert-adv-y="2048"  />

      
      <glyph glyph-name="unidf" unicode="&#xdf;" d="M256 0L145 0L145 1127Q145 1326 226.50 1435Q308 1544 453 1544Q584 1544 665.50 1460.50Q747 1377 747 1236Q747 1176 735.50 1128Q724 1080 693.50 1015Q663 950 653 911Q643 872 643 824Q643 768 678 715.50Q713 663 792.50 592.50Q872 522 909 453.50Q946 385 946 307Q946 160 857.50 70Q769-20 629-20Q558-20 481 4.50Q404 29 373 60L403 163Q435 133 497.50 107.50Q560 82 616 82Q715 82 775 145Q835 208 835 306Q835 366 800 420.50Q765 475 686.50 544.50Q608 614 570 681Q532 748 532 826Q532 893 549 942Q566 991 586 1033.50Q606 1076 623 1121.50Q640 1167 640 1229Q640 1320 589.50 1380.50Q539 1441 462 1441Q259 1441 256 1135L256 0Z"  horiz-adv-x="1051" vert-adv-y="2048"  />

      
      <glyph glyph-name="unie6" unicode="&#xe6;" d="M1082-20Q966-20 882 33.50Q798 87 747 182Q696 86 600.50 33Q505-20 388-20Q248-20 169 63Q90 146 90 294Q90 454 186 543Q282 632 462 632L671 632L671 720Q671 851 619.50 924.50Q568 998 465 998Q356 998 290 932.50Q224 867 224 765L114 778Q114 921 212 1011.50Q310 1102 465 1102Q568 1102 642.50 1051Q717 1000 752 898Q803 994 881 1048Q959 1102 1055 1102Q1221 1102 1317 980.50Q1413 859 1413 634L1413 536L782 536L782 510Q782 310 861 196.50Q940 83 1082 83Q1235 83 1353 201L1395 111Q1341 47 1259 13.50Q1177-20 1082-20M406 82Q480 82 556.50 126.50Q633 171 671 232L671 534L458 534Q342 533 272 465.50Q202 398 202 290Q202 197 253 139.50Q304 82 406 82M1055 998Q945 998 872.50 899.50Q800 801 785 636L1303 636L1303 667Q1303 822 1237 910Q1171 998 1055 998Z"  horiz-adv-x="1494" vert-adv-y="2048"  />

      
      <glyph glyph-name="unif0" unicode="&#xf0;" d="M699 1303Q901 1052 908 652L908 535Q908 376 860.50 248.50Q813 121 727 50.50Q641-20 534-20Q423-20 333.50 42.50Q244 105 192.50 218Q141 331 141 466Q141 693 242 829Q343 965 511 965Q592 965 662.50 928Q733 891 782 828Q744 1076 609 1237L421 1099L375 1173L548 1301Q429 1409 262 1472L298 1578Q500 1507 641 1369L804 1489L850 1414L699 1303M797 626L795 686Q759 770 689 814.50Q619 859 533 859Q401 859 327 754.50Q253 650 253 466Q253 303 334 194Q415 85 538 85Q654 85 725.50 210Q797 335 797 541L797 626Z"  horiz-adv-x="1042" vert-adv-y="2048"  />

      
      <glyph glyph-name="unif7" unicode="&#xf7;" d="M919 642L80 642L80 761L919 761L919 642M430 1088Q430 1124 450 1148.50Q470 1173 506 1173Q542 1173 562.50 1148.50Q583 1124 583 1088Q583 1053 562.50 1029.50Q542 1006 506 1006Q470 1006 450 1029.50Q430 1053 430 1088M430 291Q430 326 450 350.50Q470 375 506 375Q542 375 562.50 350.50Q583 326 583 291Q583 256 562.50 232Q542 208 506 208Q470 208 450 232Q430 256 430 291Z"  horiz-adv-x="1019" vert-adv-y="2048"  />

      
      <glyph glyph-name="unif8" unicode="&#xf8;" d="M95 556Q95 795 207.50 948.50Q320 1102 501 1102Q599 1102 679 1055L744 1213L828 1213L744 1008Q823 936 866.50 819Q910 702 910 556L910 524Q910 285 798 132.50Q686-20 503-20Q414-20 336 19L271-139L187-139L270 64Q95 212 95 539L95 556M205 524Q205 417 232.50 324.50Q260 232 314 170L638 955Q576 998 501 998Q369 998 287 872.50Q205 747 205 546L205 524M798 556Q798 772 698 898L377 117Q433 83 503 83Q636 83 717 206.50Q798 330 798 532L798 556Z"  horiz-adv-x="1001" vert-adv-y="2048"  />

      
      <glyph glyph-name="unife" unicode="&#xfe;" d="M891 530Q891 281 797 130.50Q703-20 543-20Q360-20 263 126L263-416L152-416L152 1536L263 1536L263 943Q361 1102 541 1102Q705 1102 798 954Q891 806 891 546L891 530M780 551Q780 757 709.50 876Q639 995 514 995Q338 995 263 796L263 265Q338 83 516 83Q641 83 710.50 203.50Q780 324 780 551Z"  horiz-adv-x="1011" vert-adv-y="2048"  />

      
      <glyph glyph-name="uni0111" unicode="&#x0111;" d="M995 1256L847 1256L847 0L743 0L738 134Q642-20 460-20Q300-20 204 133.50Q108 287 108 551Q108 804 204 953Q300 1102 461 1102Q640 1102 736 942L736 1256L477 1256L477 1360L736 1360L736 1536L847 1536L847 1360L995 1360L995 1256M221 530Q221 323 289.50 204.50Q358 86 482 86Q658 86 736 273L736 794Q661 995 483 995Q358 995 289.50 877Q221 759 221 530Z"  horiz-adv-x="1033" vert-adv-y="2048"  />

      
      <glyph glyph-name="uni0126" unicode="&#x0126;" d="M1067 1124L1188 1124L1188 1026L1067 1026L1067 0L953 0L953 697L270 697L270 0L156 0L156 1026L41 1026L41 1124L156 1124L156 1456L270 1456L270 1124L953 1124L953 1456L1067 1456L1067 1124M270 803L953 803L953 1026L270 1026L270 803Z"  horiz-adv-x="1229" vert-adv-y="2048"  />

      
      <glyph glyph-name="uni0131" unicode="&#x0131;" d="M270 0L159 0L159 1082L270 1082L270 0Z"  horiz-adv-x="431" vert-adv-y="2048"  />

      
      <glyph glyph-name="uni0138" unicode="&#x0138;" d="M377 494L267 494L267 0L155 0L155 1082L267 1082L267 603L372 603L737 1082L872 1082L471 556L912 0L771 0L377 494Z"  horiz-adv-x="978" vert-adv-y="2048"  />

      
      <glyph glyph-name="uni0141" unicode="&#x0141;" d="M284 820L535 915L535 823L284 728L284 106L883 106L883 0L169 0L169 684L40 636L40 728L169 776L169 1456L284 1456L284 820Z"  horiz-adv-x="952" vert-adv-y="2048"  />

      
      <glyph glyph-name="uni0142" unicode="&#x0142;" d="M299 862L446 930L446 838L299 770L299 0L188 0L188 718L42 651L42 743L188 810L188 1536L299 1536L299 862Z"  horiz-adv-x="488" vert-adv-y="2048"  />

      
      <glyph glyph-name="uni014A" unicode="&#x014A;" d="M1077 1456L1077-86Q1077-257 1008-347Q939-437 817-437Q768-437 722-418L732-314Q767-329 816-329Q886-329 924-265.50Q962-202 962-86L962 0L283 1235L283 0L169 0L169 1456L283 1456L962 223L962 1456L1077 1456Z"  horiz-adv-x="1242" vert-adv-y="2048"  />

      
      <glyph glyph-name="uni014B" unicode="&#x014B;" d="M249 1082L258 904Q352 1102 545 1102Q697 1102 772 992.50Q847 883 848 667L848-89Q848-259 779.50-348Q711-437 590-437Q538-437 487-418L499-312Q536-328 590-328Q660-328 698.50-266.50Q737-205 737-89L737 659Q737 833 684.50 914Q632 995 518 995Q331 995 261 785L261 0L150 0L150 1082L249 1082Z"  horiz-adv-x="1001" vert-adv-y="2048"  />

      
      <glyph glyph-name="uni0152" unicode="&#x0152;" d="M1533 0L823 0Q666-21 565-21Q435-21 331.50 52Q228 125 170 259.50Q112 394 110 564L110 880Q110 1052 166.50 1188.50Q223 1325 327 1400.50Q431 1476 563 1476Q673 1476 823 1456L1528 1456L1528 1348L883 1348L883 803L1447 803L1447 697L883 697L883 106L1533 106L1533 0M565 82Q673 82 769 96L769 1358Q685 1372 563 1372Q405 1372 313 1241Q221 1110 221 878L221 576Q221 349 315 215.50Q409 82 565 82Z"  horiz-adv-x="1653" vert-adv-y="2048"  />

      
      <glyph glyph-name="uni0153" unicode="&#x0153;" d="M99 556Q99 800 210.50 951Q322 1102 502 1102Q617 1102 710 1034.50Q803 967 853 842Q901 957 989.50 1029.50Q1078 1102 1185 1102Q1352 1102 1447.50 980.50Q1543 859 1546 650L1546 536L912 536L912 510Q912 322 993 202.50Q1074 83 1200 83Q1375 83 1470 202L1518 117Q1409-20 1200-20Q1086-20 994.50 48Q903 116 852 236Q803 118 714 49Q625-20 503-20Q321-20 210 130.50Q99 281 99 532L99 556M211 524Q211 330 290 206.50Q369 83 503 83Q635 83 714 206.50Q793 330 793 532L793 556Q793 750 713 874Q633 998 502 998Q371 998 291 874Q211 750 211 547L211 524M1185 998Q1082 998 1007.50 899.50Q933 801 916 640L1435 640L1435 669Q1435 813 1367 905.50Q1299 998 1185 998Z"  horiz-adv-x="1624" vert-adv-y="2048"  />

      
      <glyph glyph-name="uni017F" unicode="&#x017F;" d="M159 0L159 1215Q159 1381 229 1469Q299 1557 424 1557Q479 1557 540 1538L525 1440Q486 1453 439 1453Q358 1453 314 1390.50Q270 1328 270 1215L270 0L159 0Z"  horiz-adv-x="437" vert-adv-y="2048"  />

      
      <glyph glyph-name="uni0180" unicode="&#x0180;" d="M933 490Q933 240 845.50 110Q758-20 585-20Q394-20 302 145L297 0L194 0L194 1536L304 1536L304 931Q395 1102 583 1102Q758 1102 844 978.50Q930 855 933 610L933 490M822 591Q822 797 761 896Q700 995 561 995Q376 995 304 800L304 264Q338 179 404 132.50Q470 86 563 86Q696 86 758.50 182.50Q821 279 822 483L822 591M571 1252L53 1252L53 1356L571 1356L571 1252Z"  horiz-adv-x="1042" vert-adv-y="2048"  />

      
      <glyph glyph-name="uni0181" unicode="&#x0181;" d="M331 0L331 1348Q138 1346 138 1147Q138 1104 148 1064L57 1058Q41 1110 41 1171Q41 1456 343 1456L700 1456Q897 1456 998.50 1359.50Q1100 1263 1100 1075Q1100 963 1048 880Q996 797 904 760Q1010 733 1075.50 636.50Q1141 540 1141 410Q1141 220 1037 110Q933 0 742 0L331 0M445 699L445 106L747 106Q877 106 952 186Q1027 266 1027 408Q1027 540 957.50 618Q888 696 765 699L445 699M445 804L723 804Q847 807 915.50 876Q984 945 984 1078Q984 1217 913.50 1282.50Q843 1348 700 1348L445 1348L445 804Z"  horiz-adv-x="1257" vert-adv-y="2048"  />

      
      <glyph glyph-name="uni0182" unicode="&#x0182;" d="M910 1348L284 1348L284 0L170 0L170 1456L910 1456L910 1348M283 826L580 826Q775 826 883.50 717.50Q992 609 992 415Q992 222 883 111Q774 0 582 0L169 0L169 1456L283 1456L283 826M283 718L283 106L584 106Q723 106 800 189.50Q877 273 877 417Q877 555 800.50 636Q724 717 588 718L283 718Z"  horiz-adv-x="1089" vert-adv-y="2048"  />

      
      <glyph glyph-name="uni0183" unicode="&#x0183;" d="M744 1536L744 1432L258 1432L258 936Q354 1102 537 1102Q701 1102 794 954Q887 806 887 546L887 530Q887 281 793 130.50Q699-20 539-20Q353-20 255 140L251 0L148 0L148 1536L744 1536M776 551Q776 760 708.50 877.50Q641 995 515 995Q330 995 258 779L258 285Q293 188 360 137Q427 86 517 86Q641 86 708.50 204.50Q776 323 776 551Z"  horiz-adv-x="996" vert-adv-y="2048"  />

      
      <glyph glyph-name="uni0184" unicode="&#x0184;" d="M331 1456L331 826L629 826Q822 826 930.50 717.50Q1039 609 1039 415Q1039 222 930 111Q821 0 629 0L217 0L217 967L100 1181L100 1240L217 1456L331 1456M331 718L331 106L632 106Q770 106 847 189.50Q924 273 924 417Q924 555 847.50 636Q771 717 637 718L331 718Z"  horiz-adv-x="1136" vert-adv-y="2048"  />

      
      <glyph glyph-name="uni0185" unicode="&#x0185;" d="M949 530Q949 281 855 130.50Q761-20 601-20Q415-20 317 140L313 0L209 0L209 1047L92 1261L92 1320L209 1536L320 1536L320 936Q416 1102 599 1102Q763 1102 856 954Q949 806 949 546L949 530M837 551Q837 764 769.50 879.50Q702 995 577 995Q392 995 320 780L320 285Q355 188 422 137Q489 86 579 86Q702 86 769.50 203Q837 320 837 551Z"  horiz-adv-x="1049" vert-adv-y="2048"  />

      
      <glyph glyph-name="uni0186" unicode="&#x0186;" d="M227 454Q244 253 320.50 169.50Q397 86 565 86Q726 86 816 214.50Q906 343 906 580L906 891Q906 1118 815 1243Q724 1368 557 1368Q397 1368 320 1281.50Q243 1195 227 1000L112 1000Q125 1236 237.50 1356Q350 1476 557 1476Q771 1476 895.50 1321Q1020 1166 1020 884L1020 576Q1020 297 897 138.50Q774-20 565-20Q351-20 238 100.50Q125 221 112 454L227 454Z"  horiz-adv-x="1153" vert-adv-y="2048"  />

      
      <glyph glyph-name="uni0187" unicode="&#x0187;" d="M1045 454Q1029 209 913 94.50Q797-20 592-20Q381-20 259 139.50Q137 299 136 573L136 889Q136 1164 260.50 1320Q385 1476 601 1476Q848 1476 959 1305Q996 1524 1174 1524Q1224 1524 1270 1505L1265 1404Q1231 1417 1197 1417Q1118 1417 1081.50 1358Q1045 1299 1045 1176L1045 1000L929 1000Q913 1198 835.50 1283Q758 1368 601 1368Q436 1368 344 1245Q252 1122 252 888L252 576Q252 344 341 215Q430 86 592 86Q762 86 838 171Q914 256 929 454L1045 454Z"  horiz-adv-x="1192" vert-adv-y="2048"  />

      
      <glyph glyph-name="uni0188" unicode="&#x0188;" d="M491 83Q723 83 737 335L843 335Q837 174 740 77Q643-20 491-20Q298-20 200 103.50Q102 227 100 470L100 602Q100 850 198 976Q296 1102 491 1102Q678 1102 773 964Q812 1143 965 1143Q1008 1143 1053 1125L1048 1035Q1017 1048 985 1048Q910 1048 876.50 991Q843 934 843 818L843 717L737 717Q732 852 668 925Q604 998 491 998Q348 998 280 903Q212 808 211 608L211 480Q211 275 279 179Q347 83 491 83Z"  horiz-adv-x="1060" vert-adv-y="2048"  />

      
      <glyph glyph-name="uni0189" unicode="&#x0189;" d="M218 0L218 1456L561 1456Q798 1456 936 1304.50Q1074 1153 1078 887L1078 582Q1078 308 938.50 154Q799 0 547 0L218 0M332 1348L332 106L553 106Q748 106 855 226.50Q962 347 965 571L965 876Q965 1100 860.50 1224Q756 1348 558 1348L332 1348M572 685L54 685L54 789L572 789L572 685Z"  horiz-adv-x="1213" vert-adv-y="2048"  />

      
      <glyph glyph-name="uni018A" unicode="&#x018A;" d="M331 0L331 1348Q138 1346 138 1147Q138 1104 148 1064L57 1058Q41 1110 41 1171Q41 1456 343 1456L674 1456Q827 1456 946 1374.50Q1065 1293 1131.50 1143Q1198 993 1199 800L1199 662Q1199 466 1132.50 314.50Q1066 163 944 81.50Q822 0 667 0L331 0M445 1348L445 106L666 106Q858 106 972 257.50Q1086 409 1086 670L1086 796Q1086 1049 973.50 1198.50Q861 1348 670 1348L445 1348Z"  horiz-adv-x="1329" vert-adv-y="2048"  />

      
      <glyph glyph-name="uni018B" unicode="&#x018B;" d="M96 415Q96 606 204.50 716Q313 826 506 826L805 826L805 1348L179 1348L179 1456L919 1456L919 0L502 0Q313 1 204.50 111.50Q96 222 96 415M805 718L504 718Q364 718 287.50 637Q211 556 211 417Q211 277 284.50 193Q358 109 494 106L805 106L805 718Z"  horiz-adv-x="1088" vert-adv-y="2048"  />

      
      <glyph glyph-name="uni018C" unicode="&#x018C;" d="M108 551Q108 804 204 953Q300 1102 461 1102Q640 1102 736 942L736 1432L250 1432L250 1536L847 1536L847 0L743 0L738 134Q642-20 460-20Q300-20 204 133.50Q108 287 108 551M221 530Q221 323 289.50 204.50Q358 86 482 86Q658 86 736 273L736 794Q661 995 483 995Q358 995 289.50 877Q221 759 221 530Z"  horiz-adv-x="999" vert-adv-y="2048"  />

      
      <glyph glyph-name="uni018D" unicode="&#x018D;" d="M184-375L184-274L617-274L410-74L361-19Q100 251 97 537L97 575Q97 810 208.50 955.50Q320 1101 499 1101Q680 1101 791.50 954.50Q903 808 903 567L903 543Q903 336 789.50 200Q676 64 496 52Q446 52 421 61Q487-16 612.50-133.50Q738-251 771-290L771-375L184-375M791 575Q791 761 712 879Q633 997 499 997Q368 997 288 879.50Q208 762 208 569L208 543Q208 429 249.50 322.50Q291 216 357 158Q414 139 474 139Q616 139 703.50 253.50Q791 368 791 552L791 575Z"  horiz-adv-x="1001" vert-adv-y="2048"  />

      
      <glyph glyph-name="uni018E" unicode="&#x018E;" d="M82 1456L845 1456L845 0L87 0L87 107L731 107L731 679L168 679L168 786L731 786L731 1349L82 1349L82 1456Z"  horiz-adv-x="1018" vert-adv-y="2048"  />

      
      <glyph glyph-name="uni018F" unicode="&#x018F;" d="M624-20Q388-20 253.50 149.50Q119 319 119 621L119 739L1005 739L1005 803Q1005 1067 895.50 1217Q786 1367 588 1367Q388 1367 250 1249L216 1343Q349 1476 588 1476Q836 1476 978 1293Q1120 1110 1120 795L1120 671Q1120 475 1056 316.50Q992 158 877.50 69Q763-20 624-20M624 87Q789 87 892 238.50Q995 390 1004 636L234 636L234 584Q234 352 337 219.50Q440 87 624 87Z"  horiz-adv-x="1241" vert-adv-y="2048"  />

      
      <glyph glyph-name="uni0190" unicode="&#x0190;" d="M685 688L531 688Q375 686 295 616.50Q215 547 215 392Q215 246 301 165.50Q387 85 545 85Q684 85 770 175.50Q856 266 856 404L971 404Q971 274 915.50 178.50Q860 83 762 31Q664-21 545-21Q336-21 217.50 88.50Q99 198 99 396Q99 665 333 744Q230 786 174.50 870.50Q119 955 119 1072Q119 1262 231.50 1369Q344 1476 545 1476Q719 1476 836.50 1364Q954 1252 954 1075L839 1075Q839 1207 755 1288Q671 1369 545 1369Q394 1369 313.50 1292Q233 1215 233 1076Q233 796 543 796L685 796L685 688Z"  horiz-adv-x="1104" vert-adv-y="2048"  />

      
      <glyph glyph-name="uni0191" unicode="&#x0191;" d="M876 678L317 678L317-89Q317-259 248-348Q179-437 58-437Q11-437-35-418L-24-311Q21-327 58-327Q203-327 203-78L203 1456L961 1456L961 1348L317 1348L317 786L876 786L876 678Z"  horiz-adv-x="1034" vert-adv-y="2048"  />

      
      <glyph glyph-name="uni0192" unicode="&#x0192;" d="M525 982L327 982L327-89Q327-259 258.50-348Q190-437 68-437Q21-437-25-418L-13-317Q19-333 68-333Q139-333 177.50-269Q216-205 216-89L216 982L66 982L66 1082L216 1082L216 1224Q218 1386 287.50 1471.50Q357 1557 480 1557Q535 1557 596 1538L582 1437Q539 1450 492 1450Q327 1450 327 1205L327 1082L525 1082L525 982Z"  horiz-adv-x="607" vert-adv-y="2048"  />

      
      <glyph glyph-name="uni0193" unicode="&#x0193;" d="M1059 169Q986 75 875 27.50Q764-20 632-20Q408-20 280 130Q152 280 147 546L147 900Q147 1179 268.50 1327.50Q390 1476 615 1476Q861 1476 974 1312Q1013 1524 1188 1524Q1238 1524 1284 1505L1279 1404Q1243 1417 1212 1417Q1131 1417 1094.50 1358Q1058 1299 1058 1176L1058 1045L944 1045Q926 1213 845.50 1290.50Q765 1368 616 1368Q438 1368 349.50 1249.50Q261 1131 261 902L261 566Q261 338 358.50 212Q456 86 632 86Q823 86 944 207L944 586L625 586L625 693L1059 693L1059 169Z"  horiz-adv-x="1235" vert-adv-y="2048"  />

      
      <glyph glyph-name="uni0194" unicode="&#x0194;" d="M169 1456L547 355L929 1456L1057 1456L601 198L688-32Q722-128 722-185Q722-280 675.50-331.50Q629-383 548-383Q467-383 421.50-331.50Q376-280 376-185Q376-121 414-13L489 187L495 204L42 1456L169 1456M611-185Q611-115 549 56Q486-113 486-185Q486-277 548-277Q611-277 611-185Z"  horiz-adv-x="1098" vert-adv-y="2048"  />

      
      <glyph glyph-name="uni0195" unicode="&#x0195;" d="M1041-20Q887-20 809.50 95Q732 210 729 436L729 705Q728 862 677 929Q626 996 521 996Q434 996 364.50 930.50Q295 865 259 751L259 0L148 0L148 1536L259 1536L259 912Q307 999 380.50 1050.50Q454 1102 549 1102Q696 1102 767 1004.50Q838 907 839 703L839 436Q841 266 893 176Q945 86 1041 86Q1139 86 1190.50 178Q1242 270 1243 443L1243 1082L1354 1082L1354 446Q1353 215 1275 97.50Q1197-20 1041-20Z"  horiz-adv-x="1500" vert-adv-y="2048"  />

      
      <glyph glyph-name="uni0197" unicode="&#x0197;" d="M350 0L236 0L236 1456L350 1456L350 0M555 685L37 685L37 789L555 789L555 685Z"  horiz-adv-x="592" vert-adv-y="2048"  />

      
      <glyph glyph-name="uni0198" unicode="&#x0198;" d="M460 711L286 463L286 0L172 0L172 1456L286 1456L286 635L446 880L708 1284Q734 1323 759 1357.50Q784 1392 811 1418.50Q838 1445 869.50 1460.50Q901 1476 941 1476Q966 1476 990.50 1468Q1015 1460 1037 1446.50Q1059 1433 1078 1416Q1097 1399 1113 1380L1067 1294Q1046 1317 1018.50 1338Q991 1359 950 1359Q926 1359 906 1349Q886 1339 869 1321Q852 1303 835.50 1279.50Q819 1256 802 1229L530 811L1079 0L940 0L460 711Z"  horiz-adv-x="1124" vert-adv-y="2048"  />

      
      <glyph glyph-name="uni0199" unicode="&#x0199;" d="M373 541L260 415L260 0L148 0L148 1232Q148 1390 210.50 1473.50Q273 1557 382 1557Q425 1557 470 1539L465 1448Q434 1461 401 1461Q327 1461 293.50 1404.50Q260 1348 260 1232L260 559L353 677L688 1082L826 1082L446 625L862 0L730 0L373 541Z"  horiz-adv-x="888" vert-adv-y="2048"  />

      
      <glyph glyph-name="uni019A" unicode="&#x019A;" d="M351 0L239 0L239 1536L351 1536L351 0M555 750L37 750L37 854L555 854L555 750Z"  horiz-adv-x="592" vert-adv-y="2048"  />

      
      <glyph glyph-name="uni019B" unicode="&#x019B;" d="M233 1518Q305 1518 355 1472Q405 1426 437 1320L602 1397L602 1286L468 1224L784 235Q805 166 827.50 131.50Q850 97 889 97Q911 97 925 101L931 0Q911-11 872-11Q802-11 757.50 35Q713 81 676 198L461 875L183 0L59 0L406 1047L363 1175L199 1099L199 1210L332 1271Q305 1355 277.50 1384.50Q250 1414 210 1414L170 1410L167 1507Q189 1518 233 1518Z"  horiz-adv-x="988" vert-adv-y="2048"  />

      
      <glyph glyph-name="uni019C" unicode="&#x019C;" d="M1339 142Q1247-20 1054-20Q848-20 785 203Q747 100 670 40Q593-20 473-20Q324-20 250 96.50Q176 213 174 440L174 1456L285 1456L285 449Q285 274 336.50 180Q388 86 486 86Q716 86 759 361L756 426L756 1456L867 1456L867 449Q867 274 918.50 180Q970 86 1069 86Q1290 86 1337 341L1337 1456L1449 1456L1449 0L1342 0L1339 142Z"  horiz-adv-x="1623" vert-adv-y="2048"  />

      
      <glyph glyph-name="uni019D" unicode="&#x019D;" d="M1119 0L1004 0L318 1240L318-89Q318-259 248.50-348Q179-437 58-437Q11-437-35-418L-24-311Q21-327 58-327Q203-327 203-78L203 1456L318 1456L1006 214L1006 1456L1119 1456L1119 0Z"  horiz-adv-x="1293" vert-adv-y="2048"  />

      
      <glyph glyph-name="uni01A0" unicode="&#x01A0;" d="M1085 650Q1085 450 1026.50 297.50Q968 145 859 62.50Q750-20 607-20Q466-20 356 63Q246 146 186.50 297Q127 448 126 642L126 804Q126 1002 185.50 1155.50Q245 1309 354.50 1392.50Q464 1476 605 1476Q831 1476 962 1281Q1050 1288 1091 1355Q1132 1422 1132 1566L1235 1566Q1235 1235 1012 1191Q1082 1032 1085 820L1085 650M972 806Q972 1069 873.50 1217Q775 1365 605 1365Q436 1365 338 1214Q240 1063 240 800L240 650Q240 390 339.50 239.50Q439 89 607 89Q779 89 875.50 239Q972 389 972 655L972 806Z"  horiz-adv-x="1236" vert-adv-y="2048"  />

      
      <glyph glyph-name="uni01A1" unicode="&#x01A1;" d="M95 556Q95 795 207.50 948.50Q320 1102 501 1102Q678 1102 790 958Q862 965 893.50 1016Q925 1067 925 1198L1019 1198Q1019 1053 975.50 976Q932 899 840 878Q908 745 910 564L910 524Q910 285 798 132.50Q686-20 503-20Q328-20 217 119.50Q106 259 96 485L95 556M205 524Q205 333 286 208Q367 83 503 83Q636 83 717 206.50Q798 330 798 532L798 556Q798 747 716 872.50Q634 998 501 998Q369 998 287 872.50Q205 747 205 546L205 524Z"  horiz-adv-x="1006" vert-adv-y="2048"  />

      
      <glyph glyph-name="uni01A2" unicode="&#x01A2;" d="M1281-416L1171-416L1171 1328L1047 1249L1047 174Q988 80 876.50 30Q765-20 622-20Q477-20 364 62Q251 144 189.50 295.50Q128 447 128 645L128 809Q128 1006 190 1158Q252 1310 365 1393Q478 1476 622 1476Q870 1476 1004 1336L1192 1456L1281 1456L1281-416M626 86Q730 86 812 119Q894 152 936 213L936 1241Q895 1301 813 1335Q731 1369 622 1369Q449 1369 345 1216Q241 1063 241 803L241 646Q241 393 344 239.50Q447 86 626 86Z"  horiz-adv-x="1455" vert-adv-y="2048"  />

      
      <glyph glyph-name="uni01A3" unicode="&#x01A3;" d="M974-416L864-416L864 924L764 850L764 113Q715 50 644 15Q573-20 491-20Q309-20 204.50 127Q100 274 100 527L100 562Q100 808 206 955Q312 1102 491 1102Q647 1102 747 987L884 1082L974 1082L974-416M491 83Q588 83 653 146L653 928Q589 998 491 998Q357 998 284 882.50Q211 767 211 552L211 520Q211 316 284.50 199.50Q358 83 491 83Z"  horiz-adv-x="1126" vert-adv-y="2048"  />

      
      <glyph glyph-name="uni01A4" unicode="&#x01A4;" d="M445 592L445 0L331 0L331 1348Q138 1346 138 1147Q138 1104 148 1064L57 1058Q41 1110 41 1171Q41 1456 343 1456L754 1456Q947 1456 1058 1340Q1169 1224 1169 1021Q1169 814 1061.50 703Q954 592 752 592L445 592M445 699L754 699Q898 699 976.50 782.50Q1055 866 1055 1019Q1055 1172 975.50 1260Q896 1348 755 1348L445 1348L445 699Z"  horiz-adv-x="1263" vert-adv-y="2048"  />

      
      <glyph glyph-name="uni01A5" unicode="&#x01A5;" d="M381 1350Q424 1350 469 1332L464 1242Q435 1254 401 1254Q326 1254 292 1197.50Q258 1141 258 1025L258 938Q351 1102 536 1102Q711 1102 798 978Q885 854 886 599L886 490Q886 240 799 110Q712-20 539-20Q351-20 258 130L258-416L148-416L148 1025Q148 1183 210 1266.50Q272 1350 381 1350M775 591Q775 799 710.50 897Q646 995 509 995Q333 995 258 816L258 246Q333 83 511 83Q645 83 709.50 181Q774 279 775 483L775 591Z"  horiz-adv-x="996" vert-adv-y="2048"  />

      
      <glyph glyph-name="uni01A6" unicode="&#x01A6;" d="M285 1547L285 1456L566 1456Q768 1456 877.50 1342.50Q987 1229 987 1027Q987 886 919 779.50Q851 673 736 632L1215-342L1215-355L1092-355L626 606L285 606L285 0L170 0L170 1547L285 1547M285 712L589 712Q718 712 795 800.50Q872 889 872 1027Q872 1180 792 1264Q712 1348 568 1348L285 1348L285 712Z"  horiz-adv-x="1199" vert-adv-y="2048"  />

      
      <glyph glyph-name="uni01A7" unicode="&#x01A7;" d="M202 358Q202 234 285.50 160Q369 86 509 86Q667 86 759 174.50Q851 263 851 416L966 416Q966 281 907.50 184Q849 87 743 33.50Q637-20 509-20Q318-20 202.50 83.50Q87 187 87 360Q87 520 179 621.50Q271 723 492 794Q659 848 735.50 919Q812 990 812 1101Q812 1219 732.50 1293.50Q653 1368 515 1368Q373 1368 290.50 1277.50Q208 1187 208 1040L94 1040Q94 1232 212 1354Q330 1476 515 1476Q696 1476 811.50 1372Q927 1268 927 1099Q927 952 839 855.50Q751 759 528 683Q340 619 271 548.50Q202 478 202 358Z"  horiz-adv-x="1059" vert-adv-y="2048"  />

      
      <glyph glyph-name="uni01A8" unicode="&#x01A8;" d="M225 276Q225 191 288.50 137Q352 83 452 83Q562 83 628.50 142.50Q695 202 700 305L811 305Q811 165 711.50 72.50Q612-20 452-20Q299-20 206.50 64Q114 148 114 282Q114 405 186.50 480Q259 555 433.50 602Q608 649 650 722Q669 755 669 810Q669 892 612 945Q555 998 457 998Q358 998 294.50 934.50Q231 871 231 778L119 778Q119 922 211.50 1012Q304 1102 457 1102Q600 1102 690.50 1016.50Q781 931 781 806Q781 689 709 617.50Q637 546 464 502.50Q291 459 244 367Q225 330 225 276Z"  horiz-adv-x="915" vert-adv-y="2048"  />

      
      <glyph glyph-name="uni01A9" unicode="&#x01A9;" d="M620 742L212 107L922 107L922 0L74 0L74 94L500 757L74 1361L74 1456L878 1456L878 1349L219 1349L620 777L620 742Z"  horiz-adv-x="1006" vert-adv-y="2048"  />

      
      <glyph glyph-name="uni01AA" unicode="&#x01AA;" d="M45 1234Q45 1378 127 1474.50Q209 1571 325 1571Q444 1571 526.50 1473.50Q609 1376 609 1230L609-70Q609-316 759-316Q794-316 827-302L832-404Q780-422 736-422Q619-422 558-333Q497-244 497-74L497 968Q421 900 325 900Q205 900 125 994.50Q45 1089 45 1234M326 1014Q404 1014 453 1076.50Q502 1139 502 1236Q502 1333 452 1395.50Q402 1458 326 1458Q250 1458 199.50 1397Q149 1336 149 1235Q149 1134 199 1074Q249 1014 326 1014Z"  horiz-adv-x="841" vert-adv-y="2048"  />

      
      <glyph glyph-name="uni01AB" unicode="&#x01AB;" d="M500 982L315 982L315 263Q315 174 341.50 130.50Q368 87 430 87Q457 87 510 97L513-3L513-75Q513-233 464.50-316.50Q416-400 309-400Q266-400 221-382L226-292Q252-304 289-304Q364-304 397.50-247.50Q431-191 431-75L431-19L404-20Q209-20 204 248L204 982L37 982L37 1082L204 1082L204 1358L315 1358L315 1082L500 1082L500 982Z"  horiz-adv-x="594" vert-adv-y="2048"  />

      
      <glyph glyph-name="uni01AC" unicode="&#x01AC;" d="M1032 1348L618 1348L618 0L505 0L505 1348L333 1348Q138 1348 138 1147Q138 1104 148 1064L57 1058Q41 1110 41 1171Q41 1456 341 1456L1032 1456L1032 1348Z"  horiz-adv-x="1094" vert-adv-y="2048"  />

      
      <glyph glyph-name="uni01AD" unicode="&#x01AD;" d="M211 1246Q211 1404 273.50 1487.50Q336 1571 445 1571Q486 1571 533 1553L528 1462Q497 1475 465 1475Q390 1475 356 1418.50Q322 1362 322 1246L322 1082L507 1082L507 982L322 982L322 277Q322 181 349.50 134Q377 87 437 87Q464 87 517 97L520-3Q482-20 411-20Q214-20 211 270L211 982L44 982L44 1082L211 1082L211 1246Z"  horiz-adv-x="600" vert-adv-y="2048"  />

      
      <glyph glyph-name="uni01AE" unicode="&#x01AE;" d="M829-418Q783-437 735-437Q613-437 544.50-348Q476-259 476-89L476 1348L63 1348L63 1456L1005 1456L1005 1348L591 1348L591-89Q591-205 627.50-267Q664-329 735-329Q773-329 818-313L829-418Z"  horiz-adv-x="1067" vert-adv-y="2048"  />

      
      <glyph glyph-name="uni01AF" unicode="&#x01AF;" d="M1018 1456L1018 1245Q1118 1254 1161 1322Q1204 1390 1204 1544L1301 1544Q1301 1350 1233.50 1255Q1166 1160 1018 1150L1018 455Q1014 237 896 108.50Q778-20 585-20Q391-20 273.50 105.50Q156 231 152 454L152 1456L266 1456L266 462Q268 284 354 185Q440 86 585 86Q732 86 817.50 187.50Q903 289 903 470L903 1456L1018 1456Z"  horiz-adv-x="1216" vert-adv-y="2048"  />

      
      <glyph glyph-name="uni01B0" unicode="&#x01B0;" d="M1071 1179Q1071 1011 1014.50 940Q958 869 838 864L838 0L730 0L728 129Q636-20 443-20Q296-20 221 82Q146 184 145 382L145 1082L255 1082L255 385Q255 238 307 162Q359 86 457 86Q667 86 726 290L726 1082L838 1082L838 948Q918 953 949.50 996.50Q981 1040 981 1179L1071 1179Z"  horiz-adv-x="1059" vert-adv-y="2048"  />

      
      <glyph glyph-name="uni01B1" unicode="&#x01B1;" d="M523 1334Q396 1282 324.50 1127.50Q253 973 252 736L252 609Q252 368 344.50 227Q437 86 591 86Q741 86 833 223.50Q925 361 929 591L929 726Q929 967 858 1124Q787 1281 657 1334L657 1456L1050 1456L1050 1348L809 1348Q919 1251 982 1086Q1045 921 1045 726L1045 611Q1045 426 988 282Q931 138 827 59Q723-20 591-20Q387-20 261 154.50Q135 329 135 617L135 726Q135 923 197 1086Q259 1249 371 1348L134 1348L134 1456L523 1456L523 1334Z"  horiz-adv-x="1183" vert-adv-y="2048"  />

      
      <glyph glyph-name="uni01B2" unicode="&#x01B2;" d="M590-20Q397-20 279.50 105.50Q162 231 158 454L158 1456L272 1456L272 462Q274 284 360 185Q446 86 590 86Q734 86 820 184Q906 282 909 458L909 1128Q909 1249 874.50 1308Q840 1367 759 1367Q726 1367 692 1354L687 1457Q733 1476 783 1476Q900 1476 962 1387Q1024 1298 1024 1128L1024 469Q1024 244 905 112Q786-20 590-20Z"  horiz-adv-x="1183" vert-adv-y="2048"  />

      
      <glyph glyph-name="uni01B3" unicode="&#x01B3;" d="M534 670L773 1190L826 1300Q916 1476 1034 1476Q1078 1476 1125.50 1451Q1173 1426 1212 1380L1165 1294Q1144 1317 1116.50 1338Q1089 1359 1049 1359Q984 1359 928 1255L590 547L590 0L476 0L476 551L39 1456L173 1456L534 670Z"  horiz-adv-x="1119" vert-adv-y="2048"  />

      
      <glyph glyph-name="uni01B4" unicode="&#x01B4;" d="M408 281L435 177L696 1078L718 1143Q787 1337 930 1337Q1019 1337 1094 1264L1062 1183Q999 1236 942 1236Q895 1236 858 1187Q821 1138 784 1013L431-177Q354-437 173-437Q137-437 95-423L94-321Q115-328 146-328Q221-328 267-281Q313-234 347-120L385 7L45 1082L167 1082L408 281Z"  horiz-adv-x="1062" vert-adv-y="2048"  />

      
      <glyph glyph-name="uni01B5" unicode="&#x01B5;" d="M625 798L901 798L901 694L565 694L228 106L977 106L977 0L95 0L95 95L439 694L146 694L146 798L499 798L815 1349L115 1349L115 1456L950 1456L950 1365L625 798Z"  horiz-adv-x="1069" vert-adv-y="2048"  />

      
      <glyph glyph-name="uni01B6" unicode="&#x01B6;" d="M539 602L729 602L729 498L475 498L230 103L814 103L814 0L98 0L98 90L349 498L156 498L156 602L413 602L645 977L113 977L113 1082L780 1082L780 991L539 602Z"  horiz-adv-x="889" vert-adv-y="2048"  />

      
      <glyph glyph-name="uni01B7" unicode="&#x01B7;" d="M478 751L529 751Q761 751 883.50 597Q1006 443 1006 162Q1006-116 885-271Q764-426 542-426Q346-426 229-304.50Q112-183 91 47L205 47Q226-147 307.50-233Q389-319 542-319Q713-319 802.50-198Q892-77 892 162Q892 400 802.50 523Q713 646 535 647L345 647L345 742L802 1349L108 1349L108 1456L939 1456L939 1367L478 751Z"  horiz-adv-x="1131" vert-adv-y="2048"  />

      
      <glyph glyph-name="uni01B8" unicode="&#x01B8;" d="M1041 47Q1020-184 902.50-305Q785-426 590-426Q367-426 246-271Q125-116 125 162Q125 443 247.50 597Q370 751 603 751L653 751L192 1367L192 1456L1024 1456L1024 1349L329 1349L786 742L786 647L599 647Q428 647 333.50 528.50Q239 410 239 162Q239-77 328.50-198Q418-319 590-319Q744-319 824.50-232.50Q905-146 926 47L1041 47Z"  horiz-adv-x="1131" vert-adv-y="2048"  />

      
      <glyph glyph-name="uni01B9" unicode="&#x01B9;" d="M880 1082L880 977L288 977L639 468L639 364L534 364Q239 358 239 17Q239-124 314-207.50Q389-291 521-291Q643-291 720-200Q797-109 797 29L909 29Q909-163 799.50-279Q690-395 521-395Q343-395 236-281Q129-167 129 21Q129 225 229.50 339Q330 453 516 461L149 988L150 1082L880 1082Z"  horiz-adv-x="1014" vert-adv-y="2048"  />

      
      <glyph glyph-name="uni01BA" unicode="&#x01BA;" d="M200-140Q200-224 263.50-278.50Q327-333 427-333Q537-333 603-275Q669-217 674-111L786-111Q786-250 687-343.50Q588-437 427-437Q277-437 182.50-353.50Q88-270 88-133Q88-14 161.50 61Q235 136 411 183Q543 218 594 263Q645 308 645 394Q645 472 589 519Q533 566 437 567L310 567L310 649L637 977L114 977L114 1082L799 1082L799 999L487 667Q612 651 683.50 575.50Q755 500 755 390Q755 272 683.50 200Q612 128 439.50 84.50Q267 41 220-49Q200-87 200-140Z"  horiz-adv-x="924" vert-adv-y="2048"  />

      
      <glyph glyph-name="uni01BB" unicode="&#x01BB;" d="M905 0L133 0L133 94L555 664L300 664L300 767L625 767Q733 936 733 1074Q733 1211 667.50 1291.50Q602 1372 486 1372Q363 1372 290 1278.50Q217 1185 217 1036L106 1036Q106 1226 211 1351Q316 1476 486 1476Q652 1476 749 1372.50Q846 1269 846 1085Q846 946 744 767L905 767L905 664L680 664L630 592L268 103L905 103L905 0Z"  horiz-adv-x="999" vert-adv-y="2048"  />

      
      <glyph glyph-name="uni01BC" unicode="&#x01BC;" d="M201 746L251 1342L72 1342L72 1456L876 1456L876 1342L356 1342L315 854Q413 934 540 934Q707 934 804.50 805.50Q902 677 902 464Q902 236 806 108Q710-20 533-20Q372-20 272 87.50Q172 195 159 383L265 383Q279 236 348 159.50Q417 83 533 83Q660 83 725.50 182Q791 281 791 462Q791 623 717.50 722.50Q644 822 519 822Q447 822 395 799.50Q343 777 289 718L201 746Z"  horiz-adv-x="996" vert-adv-y="2048"  />

      
      <glyph glyph-name="uni01BD" unicode="&#x01BD;" d="M155 502L202 971L57 971L57 1082L760 1082L760 971L307 971L273 651Q358 731 490 734Q633 738 718.50 638.50Q804 539 804 366Q804 183 715 83.50Q626-16 460-16Q317-16 223.50 73Q130 162 130 306L238 314Q238 207 298 146.50Q358 86 460 86Q582 86 637 160Q692 234 692 364Q692 489 634.50 560Q577 631 474 631Q310 631 248 489L155 502Z"  horiz-adv-x="904" vert-adv-y="2048"  />

      
      <glyph glyph-name="uni01BE" unicode="&#x01BE;" d="M650 982L465 982L465 810Q465 656 570 576L683 497Q786 420 786 282Q786 149 693.50 64.50Q601-20 448-20Q288-20 188.50 72.50Q89 165 89 305L200 305Q205 200 272 141.50Q339 83 448 83Q548 83 611.50 137Q675 191 675 276Q675 375 575.50 443.50Q476 512 447 542Q356 635 354 797L354 982L187 982L187 1082L354 1082L354 1358L465 1358L465 1082L650 1082L650 982Z"  horiz-adv-x="878" vert-adv-y="2048"  />

      
      <glyph glyph-name="uni01BF" unicode="&#x01BF;" d="M250 1082L255 939Q354 1102 536 1102Q696 1102 789.50 969Q883 836 886 596L886 561Q886 305 738.50 145.50Q591-14 258-105L258-416L148-416L148 1082L250 1082M509 995Q333 995 258 796L258-3Q515 61 643.50 199.50Q772 338 775 549L775 582Q775 775 704.50 885Q634 995 509 995Z"  horiz-adv-x="996" vert-adv-y="2048"  />

      
      <glyph glyph-name="uni01C0" unicode="&#x01C0;" d="M287 0L195 0L195 1456L287 1456L287 0Z"  horiz-adv-x="482" vert-adv-y="2048"  />

      
      <glyph glyph-name="uni01C1" unicode="&#x01C1;" d="M287 0L195 0L195 1456L287 1456L287 0M467 0L375 0L375 1456L467 1456L467 0Z"  horiz-adv-x="663" vert-adv-y="2048"  />

      
      <glyph glyph-name="uni01C2" unicode="&#x01C2;" d="M352 0L260 0L260 1456L352 1456L352 0M563 977L45 977L45 1081L563 1081L563 977M563 425L45 425L45 529L563 529L563 425Z"  horiz-adv-x="607" vert-adv-y="2048"  />

      
      <glyph glyph-name="uni01C3" unicode="&#x01C3;" d="M269 406L166 406L160 1456L276 1456L269 406M149 71Q149 106 168.50 129.50Q188 153 223 153Q258 153 277.50 129.50Q297 106 297 71Q297 37 277.50 14.50Q258-8 223-8Q188-8 168.50 14.50Q149 37 149 71Z"  horiz-adv-x="438" vert-adv-y="2048"  />

      
      <glyph glyph-name="uni01C4" unicode="&#x01C4;" d="M172 0L172 1456L515 1456Q752 1456 890 1304.50Q1028 1153 1032 887L1032 582Q1032 308 892.50 154Q753 0 501 0L172 0M286 1348L286 106L507 106Q702 106 809 226.50Q916 347 919 571L919 876Q919 1100 814.50 1224Q710 1348 512 1348L286 1348M1152 106L1901 106L1901 0L1019 0L1019 95L1739 1349L1039 1349L1039 1456L1874 1456L1874 1365L1152 106M1464 1643L1605 1836L1703 1836L1703 1824L1502 1562L1425 1562L1225 1825L1225 1836L1323 1836L1464 1643Z"  horiz-adv-x="1994" vert-adv-y="2048"  />

      
      <glyph glyph-name="uni01C5" unicode="&#x01C5;" d="M172 0L172 1456L515 1456Q668 1456 788 1373Q908 1290 973.50 1140.50Q1039 991 1040 800L1040 662Q1040 363 893 181.50Q746 0 501 0L172 0M286 1348L286 106L507 106Q697 106 812 257Q927 408 927 669L927 796Q927 1049 814.50 1198.50Q702 1348 511 1348L286 1348M1218 103L1803 103L1803 0L1087 0L1087 90L1633 977L1102 977L1102 1082L1768 1082L1768 991L1218 103M1440 1327L1578 1495L1681 1495L1681 1478L1482 1252L1398 1252L1200 1477L1200 1495L1304 1495L1440 1327Z"  horiz-adv-x="1873" vert-adv-y="2048"  />

      
      <glyph glyph-name="uni01C6" unicode="&#x01C6;" d="M108 551Q108 804 204 953Q300 1102 461 1102Q640 1102 736 942L736 1560L847 1560L847 0L748 0L740 137Q645-20 460-20Q300-20 204 133.50Q108 287 108 551M221 530Q221 323 289.50 204.50Q358 86 482 86Q658 86 736 273L736 794Q661 995 483 995Q358 995 289.50 877Q221 759 221 530M1047 103L1632 103L1632 0L916 0L916 90L1462 977L931 977L931 1082L1596 1082L1596 991L1047 103M1268 1327L1406 1495L1510 1495L1510 1478L1311 1252L1226 1252L1028 1477L1028 1495L1132 1495L1268 1327Z"  horiz-adv-x="1702" vert-adv-y="2048"  />

      
      <glyph glyph-name="uni01E4" unicode="&#x01E4;" d="M1059 458L1201 458L1201 354L1059 354L1059 174Q999 79 887 29.50Q775-20 632-20Q488-20 376.50 61Q265 142 202.50 291Q140 440 138 632L138 820Q138 1120 265.50 1298Q393 1476 615 1476Q802 1476 917.50 1363.50Q1033 1251 1058 1045L944 1045Q922 1203 838.50 1285.50Q755 1368 616 1368Q446 1368 349 1223Q252 1078 252 817L252 646Q252 394 356 240Q460 86 632 86Q738 86 820.50 119Q903 152 944 212L944 354L683 354L683 458L944 458L944 586L625 586L625 693L1059 693L1059 458Z"  horiz-adv-x="1215" vert-adv-y="2048"  />

      
      <glyph glyph-name="uni01E5" unicode="&#x01E5;" d="M854 1082L854-31L851-78L979-78L979-163L838-163Q803-309 710-386.50Q617-464 485-464Q393-464 304-413.50Q215-363 165-279L226-205Q333-360 478-360Q572-360 635-309Q698-258 724-163L49-163L49-78L740-78Q743-50 743 131Q647-20 466-20Q308-20 212 130Q116 280 116 551Q116 806 211 954Q306 1102 467 1102Q650 1102 746 936L751 1082L854 1082M227 530Q227 323 295.50 204.50Q364 86 488 86Q669 86 743 280L743 788Q667 995 490 995Q364 995 295.50 877Q227 759 227 530Z"  horiz-adv-x="996" vert-adv-y="2048"  />

      
      <glyph glyph-name="uni01EE" unicode="&#x01EE;" d="M478 751L529 751Q761 751 883.50 597Q1006 443 1006 162Q1006-116 885-271Q764-426 542-426Q346-426 229-304.50Q112-183 91 47L205 47Q226-147 307.50-233Q389-319 542-319Q713-319 802.50-198Q892-77 892 162Q892 400 802.50 523Q713 646 535 647L345 647L345 742L802 1349L108 1349L108 1456L939 1456L939 1367L478 751M514 1635L655 1828L753 1828L753 1816L552 1554L475 1554L275 1817L275 1828L373 1828L514 1635Z"  horiz-adv-x="1132" vert-adv-y="2048"  />

      
      <glyph glyph-name="uni01EF" unicode="&#x01EF;" d="M734 977L142 977L142 1082L872 1082L874 988L507 461Q691 453 792.50 339Q894 225 894 21Q894-168 786-281.50Q678-395 501-395Q392-395 302-342Q212-289 162.50-194.50Q113-100 113 29L226 29Q226-109 303-200Q380-291 501-291Q633-291 708.50-208Q784-125 784 17Q784 359 487 364L383 364L383 468L734 977M491 1327L629 1495L732 1495L732 1478L533 1252L448 1252L251 1477L251 1495L353 1495L491 1327Z"  horiz-adv-x="1032" vert-adv-y="2048"  />

      
      <glyph glyph-name="uni01F6" unicode="&#x01F6;" d="M1786 1081L1786 422Q1784 220 1673.50 101Q1563-18 1377-18Q1191-18 1082 99Q973 216 970 417L970 697L286 697L286 0L172 0L172 1456L286 1456L286 803L970 803L970 1456L1085 1456L1085 430Q1085 265 1163.50 176.50Q1242 88 1377 88Q1515 88 1592 176.50Q1669 265 1671 421L1671 1081L1786 1081Z"  horiz-adv-x="1942" vert-adv-y="2048"  />

      
      <glyph glyph-name="uni01F7" unicode="&#x01F7;" d="M286 1313Q381 1476 585 1476Q806 1476 930 1326Q1054 1176 1057 896L1057 823Q1057 595 963.50 406.50Q870 218 695 87.50Q520-43 286-101L286-427L172-427L172 1456L286 1456L286 1313M585 1368Q360 1368 286 1150L286 6Q591 85 767 304.50Q943 524 943 828L943 885Q943 1132 849.50 1250Q756 1368 585 1368Z"  horiz-adv-x="1184" vert-adv-y="2048"  />

      
      <glyph glyph-name="uni021C" unicode="&#x021C;" d="M192 465Q343 529 461.50 585Q580 641 661 707Q742 773 784.50 858Q827 943 827 1065Q827 1210 746.50 1289.50Q666 1369 517 1369Q393 1369 307.50 1287Q222 1205 222 1074L108 1074Q108 1250 225 1363Q342 1476 517 1476Q720 1476 831.50 1368Q943 1260 943 1063Q943 850 797 700Q961 614 961 335Q961 147 887.50 6Q814-135 652-240.50Q490-346 193-437L193-328Q448-246 582.50-157.50Q717-69 782 50.50Q847 170 847 335Q847 569 721 632Q625 558 493 494Q361 430 193 364L192 465Z"  horiz-adv-x="1072" vert-adv-y="2048"  />

      
      <glyph glyph-name="uni021D" unicode="&#x021D;" d="M164 343L339 414Q508 485 586.50 576Q665 667 665 791Q665 890 607.50 944Q550 998 444 998Q348 998 282 937.50Q216 877 216 789L105 789Q105 925 203 1013Q301 1101 444 1101Q602 1101 689 1020Q776 939 776 791Q776 623 655 502Q723 464 758 385Q793 306 793 200Q793-47 634.50-205Q476-363 166-437L166-332Q427-255 554-123.50Q681 8 681 199Q681 387 582 440Q443 339 165 244L164 343Z"  horiz-adv-x="904" vert-adv-y="2048"  />

      
      <glyph glyph-name="uni0220" unicode="&#x0220;" d="M283 1364Q337 1410 416 1443Q495 1476 591 1476Q775 1476 892 1354.50Q1009 1233 1009 1025L1009-427L898-427L898 1031Q897 1191 814 1280.50Q731 1370 591 1370Q408 1370 283 1252L283 0L172 0L172 1456L283 1456L283 1364Z"  horiz-adv-x="1162" vert-adv-y="2048"  />

      
      <glyph glyph-name="uni0221" unicode="&#x0221;" d="M108 551Q108 804 204 953Q300 1102 461 1102Q640 1102 736 942L736 1536L847 1536L847 4Q919 53 996 53Q1093 53 1151-12.50Q1209-78 1209-188Q1209-297 1146.50-367Q1084-437 983-437Q790-437 747-246L650-397L580-325L736-99L736 130Q641-20 460-20Q300-20 204 133.50Q108 287 108 551M221 530Q221 323 289.50 204.50Q358 86 482 86Q658 86 736 273L736 794Q661 995 483 995Q358 995 289.50 877Q221 759 221 530M982-50Q913-50 847-118L847-153Q847-333 984-333Q1036-333 1066.50-292.50Q1097-252 1097-188Q1097-126 1067-88Q1037-50 982-50Z"  horiz-adv-x="1254" vert-adv-y="2048"  />

      
      <glyph glyph-name="uni0222" unicode="&#x0222;" d="M619 872Q797 872 879 937.50Q961 1003 961 1134Q961 1243 909.50 1300Q858 1357 760 1373L760 1476Q907 1467 990.50 1377Q1074 1287 1074 1134Q1074 890 853 810Q955 760 1014.50 664Q1074 568 1074 424Q1074 216 950.50 98Q827-20 606-20L588-20Q378-20 253.50 97.50Q129 215 129 422Q129 566 188.50 663Q248 760 349 810Q128 890 128 1134Q128 1285 211 1376Q294 1467 442 1476L442 1373Q242 1340 242 1134Q242 1003 324 937.50Q406 872 582 872L619 872M588 762Q426 762 334 671.50Q242 581 242 422Q242 265 333.50 177Q425 89 594 89L614 89Q778 89 869.50 177.50Q961 266 961 424Q961 580 870 671Q779 762 608 762L588 762Z"  horiz-adv-x="1203" vert-adv-y="2048"  />

      
      <glyph glyph-name="uni0223" unicode="&#x0223;" d="M610 862Q779 862 866 940Q953 1018 953 1169Q953 1413 750 1458L750 1557Q892 1549 977.50 1443Q1063 1337 1063 1169Q1063 1037 1006 943.50Q949 850 836 806Q946 755 1004.50 656Q1063 557 1063 421Q1063 217 940 98.50Q817-20 599-20L579-20Q369-20 245 97Q121 214 121 419Q121 564 182.50 661Q244 758 349 806Q237 850 179 943Q121 1036 121 1168Q121 1338 209 1443.50Q297 1549 445 1557L445 1458Q339 1436 285 1362Q231 1288 231 1168Q231 1021 314.50 943Q398 865 565 862L610 862M579 758Q418 758 324.50 668Q231 578 231 419Q231 262 324.50 172.50Q418 83 585 83L605 83Q765 83 859 172Q953 261 953 421Q953 579 859.50 668.50Q766 758 599 758L579 758Z"  horiz-adv-x="1184" vert-adv-y="2048"  />

      
      <glyph glyph-name="uni0224" unicode="&#x0224;" d="M905-287Q915-255 915-204Q915 0 723 0L95 0L95 95L815 1349L115 1349L115 1456L950 1456L950 1365L228 106L722 106Q865 106 939.50 32.50Q1014-41 1014-180Q1014-243 999-294L905-287Z"  horiz-adv-x="1081" vert-adv-y="2048"  />

      
      <glyph glyph-name="uni0225" unicode="&#x0225;" d="M775 991L225 103L543 103Q839 103 839-166Q839-226 823-280L733-273Q743-233 743-190Q743-5 559 0L93 0L93 90L640 977L108 977L108 1082L775 1082L775 991Z"  horiz-adv-x="898" vert-adv-y="2048"  />

      
      <glyph glyph-name="uni0234" unicode="&#x0234;" d="M304 4Q376 53 453 53Q548 53 607-12Q666-77 666-188Q666-297 603.50-367Q541-437 440-437Q246-437 205-245L107-397L37-325L194-98L194 1536L304 1536L304 4M439-50Q371-50 304-119L304-153Q304-333 441-333Q492-333 523.50-293Q555-253 555-188Q555-126 524.50-88Q494-50 439-50Z"  horiz-adv-x="711" vert-adv-y="2048"  />

      
      <glyph glyph-name="uni0235" unicode="&#x0235;" d="M729 705Q729 855 679 925.50Q629 996 521 996Q434 996 364.50 930.50Q295 865 259 751L259 0L148 0L148 1082L254 1082L257 910Q305 998 379.50 1050Q454 1102 549 1102Q832 1102 839 725L839 4Q911 53 989 53Q1085 53 1143-12.50Q1201-78 1201-188Q1201-297 1138.50-367Q1076-437 976-437Q783-437 740-246L642-397L572-325L729-99L729 705M974-50Q904-50 839-119L839-153Q839-333 977-333Q1029-333 1059.50-292.50Q1090-252 1090-188Q1090-126 1059.50-88Q1029-50 974-50Z"  horiz-adv-x="1247" vert-adv-y="2048"  />

      
      <glyph glyph-name="uni0236" unicode="&#x0236;" d="M513 982L328 982L328 421Q403 470 477 470Q572 470 631 405Q690 340 690 228Q690 119 627 49.50Q564-20 465-20Q272-20 229 169L130 19L60 91L217 316L217 982L50 982L50 1082L217 1082L217 1358L328 1358L328 1082L513 1082L513 982M462 366Q393 366 328 297L328 263Q328 83 466 83Q516 83 547.50 123Q579 163 579 228Q579 290 548 328Q517 366 462 366Z"  horiz-adv-x="735" vert-adv-y="2048"  />

      
      <glyph glyph-name="uni0237" unicode="&#x0237;" d="M280 1082L280-89Q280-259 212-348Q144-437 22-437Q-23-437-71-418L-60-317Q-23-333 22-333Q93-333 131-269Q169-205 169-89L169 1082L280 1082Z"  horiz-adv-x="440" vert-adv-y="2048"  />

      
      <glyph glyph-name="uni0238" unicode="&#x0238;" d="M108 551Q108 804 204 953Q300 1102 461 1102Q640 1102 736 942L736 1536L847 1536L847 936Q943 1102 1126 1102Q1290 1102 1383 954Q1476 806 1476 546L1476 530Q1476 281 1382 130.50Q1288-20 1128-20Q943-20 847 136L847 0L743 0L738 134Q642-20 460-20Q300-20 204 133.50Q108 287 108 551M1364 551Q1364 764 1296.50 879.50Q1229 995 1104 995Q918 995 847 782L847 284Q922 86 1106 86Q1229 86 1296.50 203Q1364 320 1364 551M221 530Q221 323 289.50 204.50Q358 86 482 86Q658 86 736 273L736 794Q661 995 483 995Q358 995 289.50 877Q221 759 221 530Z"  horiz-adv-x="1585" vert-adv-y="2048"  />

      
      <glyph glyph-name="uni0239" unicode="&#x0239;" d="M1475 530Q1475 282 1382 131Q1289-20 1128-20Q946-20 847 126L847-416L735-416L735 123Q636-20 462-20Q300-20 204 130Q108 280 108 551Q108 806 203.50 954Q299 1102 463 1102Q641 1102 738 946L743 1082L839 1082L844 939Q943 1102 1125 1102Q1286 1102 1379.50 958.50Q1473 815 1475 560L1475 530M1364 551Q1364 757 1293.50 876Q1223 995 1098 995Q922 995 847 796L847 266Q920 83 1100 83Q1225 83 1294.50 203.50Q1364 324 1364 551M221 530Q221 321 290.50 202Q360 83 484 83Q657 83 735 261L735 806Q654 998 485 998Q360 998 290.50 879.50Q221 761 221 530Z"  horiz-adv-x="1584" vert-adv-y="2048"  />

      
      <glyph glyph-name="uni023A" unicode="&#x023A;" d="M834 407L329 407L255 296L164 0L56 0L-27-125L-130-125L128 260L509 1456L615 1456L716 1139L1005 1571L1108 1571L749 1035L1079 0L960 0L834 407M400 514L801 514L675 924L400 514M342 581L642 1030L561 1295L342 581Z"  horiz-adv-x="1123" vert-adv-y="2048"  />

      
      <glyph glyph-name="uni023B" unicode="&#x023B;" d="M1045 454Q1024 226 907.50 103Q791-20 592-20Q493-20 410 23L362-125L275-125L338 70Q238 152 183 297.50Q128 443 128 637L128 818Q128 1014 186 1163.50Q244 1313 351.50 1394.50Q459 1476 601 1476Q701 1476 782 1441L824 1571L910 1571L855 1400Q1021 1279 1045 1000L929 1000Q909 1194 818 1287L443 126Q509 86 592 86Q745 86 826.50 173.50Q908 261 929 454L1045 454M243 637Q243 491 276 374Q309 257 375 184L748 1337Q684 1368 601 1368Q436 1368 339.50 1220.50Q243 1073 243 814L243 637Z"  horiz-adv-x="1158" vert-adv-y="2048"  />

      
      <glyph glyph-name="uni023C" unicode="&#x023C;" d="M490 83Q591 83 660 152Q729 221 735 335L842 335Q834 180 732 80Q630-20 490-20Q404-20 328 17L183-416L98-416L258 65Q98 209 98 534L98 562Q98 808 204 955Q310 1102 489 1102Q546 1102 599 1085L723 1456L808 1456L673 1050Q748 1002 792.50 917Q837 832 842 717L735 717Q727 869 637 944L361 117Q415 83 490 83M210 520Q210 294 296 178L566 985Q531 998 489 998Q356 998 283 882.50Q210 767 210 552L210 520Z"  horiz-adv-x="929" vert-adv-y="2048"  />

      
      <glyph glyph-name="uni023D" unicode="&#x023D;" d="M359 106L959 106L959 0L244 0L244 1456L359 1456L359 106M568 723L50 723L50 827L568 827L568 723Z"  horiz-adv-x="1022" vert-adv-y="2048"  />

      
      <glyph glyph-name="uni023E" unicode="&#x023E;" d="M822 1571L912 1571L868 1456L1005 1456L1005 1348L826 1348L591 736L591 0L476 0L476 437L260-125L170-125L476 670L476 1348L63 1348L63 1456L778 1456L822 1571M591 1348L591 969L736 1348L591 1348Z"  horiz-adv-x="1067" vert-adv-y="2048"  />

      
      <glyph glyph-name="uni023F" unicode="&#x023F;" d="M689 276Q689 363 630 417Q571 471 456 501Q278 547 206 617.50Q134 688 134 806Q134 933 224.50 1017.50Q315 1102 457 1102Q610 1102 702.50 1012Q795 922 795 778L684 778Q684 872 619.50 935Q555 998 457 998Q359 998 301.50 945Q244 892 244 810Q244 734 291.50 687.50Q339 641 488 599.50Q637 558 707 498Q801 418 801 282Q801 147 707.50 63.50Q614-20 463-20Q378-20 312 11Q396-203 442-269Q488-335 539-335Q603-335 667-254L712-329Q627-437 535-437Q461-437 400-365.50Q339-294 275-140L97 250L184 295Q217 195 288 139Q359 83 463 83Q564 83 626.50 137Q689 191 689 276Z"  horiz-adv-x="914" vert-adv-y="2048"  />

      
      <glyph glyph-name="uni0240" unicode="&#x0240;" d="M225 103L342 103Q493 97 589-121Q643-244 676-289.50Q709-335 748-335Q810-335 873-262L916-339Q834-437 744-437Q639-437 568-302L488-142Q415-3 302 0L93 0L93 90L640 977L108 977L108 1082L775 1082L775 991L225 103Z"  horiz-adv-x="889" vert-adv-y="2048"  />

      
      <glyph glyph-name="uni0241" unicode="&#x0241;" d="M816 859Q816 636 726.50 490.50Q637 345 480 322L480 0L366 0L366 428L423 428Q556 428 629 540.50Q702 653 702 868L702 936Q702 1137 629.50 1251Q557 1365 423 1365Q317 1365 249.50 1289.50Q182 1214 176 1084L68 1084Q74 1259 171 1367.50Q268 1476 423 1476Q603 1476 709.50 1327.50Q816 1179 816 929L816 859Z"  horiz-adv-x="943" vert-adv-y="2048"  />

      
      <glyph glyph-name="uni0242" unicode="&#x0242;" d="M624 705Q624 846 563.50 921.50Q503 997 390 997Q290 997 230.50 914.50Q171 832 171 700L60 700Q60 881 153.50 991Q247 1101 390 1101Q554 1101 644 996Q734 891 734 701Q734 546 661.50 454.50Q589 363 458 347L458 0L347 0L347 430L403 430Q624 434 624 705Z"  horiz-adv-x="835" vert-adv-y="2048"  />

      
      <glyph glyph-name="uni0243" unicode="&#x0243;" d="M243 0L243 1456L612 1456Q809 1456 910.50 1359.50Q1012 1263 1012 1075Q1012 963 960 880Q908 797 816 760Q922 733 987.50 636.50Q1053 540 1053 410Q1053 220 949 110Q845 0 654 0L243 0M357 699L357 106L659 106Q789 106 864 186Q939 266 939 408Q939 540 869.50 618Q800 696 676 699L357 699M357 804L622 804Q752 804 824 873Q896 942 896 1078Q896 1217 825.50 1282.50Q755 1348 612 1348L357 1348L357 804M568 361L50 361L50 465L568 465L568 361Z"  horiz-adv-x="1168" vert-adv-y="2048"  />

      
      <glyph glyph-name="uni0244" unicode="&#x0244;" d="M1101 1456L1101 801L1285 801L1285 698L1101 698L1101 455Q1097 237 979 108.50Q861-20 668-20Q470-20 353 110Q236 240 236 469L236 698L49 698L49 801L236 801L236 1456L350 1456L350 801L987 801L987 1456L1101 1456M668 86Q812 86 898 184Q984 282 987 458L987 698L350 698L350 469Q350 289 435.50 187.50Q521 86 668 86Z"  horiz-adv-x="1334" vert-adv-y="2048"  />

      
      <glyph glyph-name="uni0245" unicode="&#x0245;" d="M170 0L45 0L499 1456L607 1456L1062 0L937 0L556 1273L552 1288L549 1273L170 0Z"  horiz-adv-x="1108" vert-adv-y="2048"  />

      
      <glyph glyph-name="uni0246" unicode="&#x0246;" d="M936 0L431 0L397-125L311-125L345 0L172 0L172 1456L739 1456L770 1571L855 1571L824 1456L931 1456L931 1348L795 1348L647 803L851 803L851 697L619 697L459 106L936 106L936 0M286 803L562 803L709 1348L286 1348L286 803M286 106L373 106L533 697L286 697L286 106Z"  horiz-adv-x="1018" vert-adv-y="2048"  />

      
      <glyph glyph-name="uni0247" unicode="&#x0247;" d="M505-20Q410-20 330 25L183-416L98-416L261 74Q96 222 96 524L96 553Q96 709 147.50 835Q199 961 289 1031.50Q379 1102 486 1102Q540 1102 598 1084L723 1456L808 1456L671 1047Q849 926 849 588L849 531L499 531L365 130Q430 83 510 83Q591 83 652 118Q713 153 762 230L831 172Q718-20 505-20M486 998Q377 998 301.50 900Q226 802 210 635L448 635L565 983Q526 998 486 998M206 510Q206 317 301 192L414 531L206 531L206 510M738 649Q738 735 712.50 812.50Q687 890 635 939L533 635L738 635L738 649Z"  horiz-adv-x="933" vert-adv-y="2048"  />

      
      <glyph glyph-name="uni0248" unicode="&#x0248;" d="M707 1456L822 1456L822 433Q822 223 720 101.50Q618-20 449-20Q271-20 174 90.50Q77 201 77 401L191 401Q191 243 259.50 164.50Q328 86 449 86Q565 86 635.50 179Q706 272 707 428L707 1456M1023 723L505 723L505 827L1023 827L1023 723Z"  horiz-adv-x="1072" vert-adv-y="2048"  />

      
      <glyph glyph-name="uni0249" unicode="&#x0249;" d="M364 1082L364-120Q364-437 125-437Q78-437 36-418L37-317Q76-330 111-330Q253-330 253-127L253 1082L364 1082M236 1394Q236 1428 254.50 1452Q273 1476 308 1476Q343 1476 362.50 1452Q382 1428 382 1394Q382 1360 362.50 1336.50Q343 1313 308 1313Q273 1313 254.50 1336.50Q236 1360 236 1394M567 559L49 559L49 663L567 663L567 559Z"  horiz-adv-x="615" vert-adv-y="2048"  />

      
      <glyph glyph-name="uni024A" unicode="&#x024A;" d="M935 60Q810-20 623-20Q394-20 261 163.50Q128 347 128 657L128 809Q128 1004 188.50 1156Q249 1308 361.50 1392Q474 1476 623 1476Q819 1476 949 1385L962 1456L1051 1456L1051-89Q1051-212 1081-270Q1111-328 1183-328Q1219-328 1250-315L1256-418Q1207-437 1160-437Q941-437 935-109L935 60M623 89Q733 89 815 123.50Q897 158 935 217L935 1238Q893 1300 810 1333Q727 1366 623 1366Q446 1366 344 1216Q242 1066 242 801L242 646Q242 390 343.50 239.50Q445 89 623 89Z"  horiz-adv-x="1277" vert-adv-y="2048"  />

      
      <glyph glyph-name="uni024B" unicode="&#x024B;" d="M108 551Q108 806 203.50 954Q299 1102 463 1102Q641 1102 738 946L743 1082L847 1082L847-112Q847-228 880.50-285Q914-342 988-342Q1026-342 1052-330L1057-420Q1015-437 969-437Q860-437 797.50-353.50Q735-270 735-112L735 123Q636-20 462-20Q300-20 204 130Q108 280 108 551M221 530Q221 321 290.50 202Q360 83 484 83Q657 83 735 261L735 806Q654 998 485 998Q360 998 290.50 879.50Q221 761 221 530Z"  horiz-adv-x="1061" vert-adv-y="2048"  />

      
      <glyph glyph-name="uni024C" unicode="&#x024C;" d="M666 606L325 606L325 0L211 0L211 606L45 606L45 712L211 712L211 1456L610 1456Q808 1456 917.50 1343Q1027 1230 1027 1027Q1027 886 959 779.50Q891 673 776 632L1080 13L1080 0L957 0L666 606M325 712L629 712Q758 712 835.50 800.50Q913 889 913 1027Q913 1180 833 1264Q753 1348 609 1348L325 1348L325 712Z"  horiz-adv-x="1154" vert-adv-y="2048"  />

      
      <glyph glyph-name="uni024D" unicode="&#x024D;" d="M638 978Q598 985 568 985Q476 985 413.50 922Q351 859 325 747L325 0L214 0L214 1082L323 1082L325 920Q404 1102 573 1102Q617 1102 640 1089L638 978M568 531L50 531L50 635L568 635L568 531Z"  horiz-adv-x="685" vert-adv-y="2048"  />

      
      <glyph glyph-name="uni024E" unicode="&#x024E;" d="M368 1144L807 1144L950 1456L1081 1456L931 1144L1125 1144L1125 1059L890 1059L644 548L644 0L529 0L529 548L283 1059L49 1059L49 1144L242 1144L92 1456L226 1456L368 1144M587 664L768 1059L407 1059L587 664Z"  horiz-adv-x="1175" vert-adv-y="2048"  />

      
      <glyph glyph-name="uni024F" unicode="&#x024F;" d="M314 699L616 699L725 1082L845 1082L729 699L871 699L871 614L703 614L465-173L445-230Q366-437 207-437Q170-437 128-423L127-321Q150-328 177-328Q257-328 301.50-280Q346-232 374-136L418 8L226 614L49 614L49 699L199 699L78 1082L199 1082L314 699M469 183L592 614L340 614L469 183Z"  horiz-adv-x="919" vert-adv-y="2048"  />

      
      <glyph glyph-name="uni0250" unicode="&#x0250;" d="M243 1082Q260 1026 264 938Q315 1015 394 1058.50Q473 1102 562 1102Q692 1102 775.50 1016.50Q859 931 859 794Q859 637 749 544Q639 451 441 451L265 451L265 330Q265 214 323 148Q381 82 491 82Q592 82 659 145Q726 208 726 298L837 297Q837 215 791 141Q745 67 664 23.50Q583-20 486-20Q332-20 243.50 72Q155 164 154 329L154 822Q154 993 126 1069L126 1082L243 1082M549 993Q449 993 373 934.50Q297 876 265 785L265 544L429 544Q580 544 663.50 607.50Q747 671 747 783Q747 875 692 934Q637 993 549 993Z"  horiz-adv-x="964" vert-adv-y="2048"  />

      
      <glyph glyph-name="uni0251" unicode="&#x0251;" d="M838 1082L838 256Q841 89 919 89Q937 89 958 97L974 3Q939-21 887-21Q756-21 732 166Q639-21 451-21Q291-21 197 122Q103 265 103 531Q103 792 196.50 947Q290 1102 453 1102Q636 1102 730 908L742 1082L838 1082M214 510Q214 304 282.50 193Q351 82 473 82Q648 82 726 312L726 748Q644 998 475 998Q352 998 283 875Q214 752 214 510Z"  horiz-adv-x="1036" vert-adv-y="2048"  />

      
      <glyph glyph-name="uni0252" unicode="&#x0252;" d="M198-1L198 824Q195 991 116 991Q103 991 76 983L62 1077Q95 1102 148 1102Q277 1102 303 914Q397 1102 584 1102Q746 1102 839.50 958Q933 814 933 549Q933 289 840 134Q747-21 582-21Q398-21 305 171L293-1L198-1M821 570Q821 775 752.50 886.50Q684 998 562 998Q384 998 309 767L309 334Q346 211 410 146.50Q474 82 560 82Q683 82 752 205Q821 328 821 570Z"  horiz-adv-x="1036" vert-adv-y="2048"  />

      
      <glyph glyph-name="uni0253" unicode="&#x0253;" d="M381 1557Q424 1557 469 1539L464 1448Q433 1461 401 1461Q326 1461 292 1404.50Q258 1348 258 1232L258 931Q349 1102 537 1102Q712 1102 798 978.50Q884 855 887 610L887 490Q887 240 799.50 110Q712-20 539-20Q348-20 256 144L251 0L148 0L148 1232Q148 1390 210 1473.50Q272 1557 381 1557M776 591Q776 797 715 896Q654 995 515 995Q330 995 258 800L258 264Q292 179 358 132.50Q424 86 517 86Q650 86 712.50 182.50Q775 279 776 483L776 591Z"  horiz-adv-x="996" vert-adv-y="2048"  />

      
      </font>
</defs>
</svg>
